M48
; DRILL file KiCad 10.0.3 date 2026-07-07T13:46:00
; FORMAT={-:-/ absolute / metric / decimal}
; #@! TF.CreationDate,2026-07-07T13:46:00+05:30
; #@! TF.GenerationSoftware,Kicad,Pcbnew,10.0.3
; #@! TF.FileFunction,MixedPlating,1,2
FMAT,2
METRIC
; #@! TA.AperFunction,Plated,PTH,ComponentDrill
T1C0.200
; #@! TA.AperFunction,Plated,PTH,ViaDrill
T2C0.300
; #@! TA.AperFunction,Plated,PTH,ComponentDrill
T3C0.600
; #@! TA.AperFunction,Plated,PTH,ComponentDrill
T4C0.800
; #@! TA.AperFunction,Plated,PTH,ComponentDrill
T5C0.850
; #@! TA.AperFunction,Plated,PTH,ComponentDrill
T6C0.900
; #@! TA.AperFunction,Plated,PTH,ComponentDrill
T7C1.400
; #@! TA.AperFunction,Plated,PTH,ComponentDrill
T8C1.500
%
G90
G05
T1
X143.05Y-81.075
X143.05Y-82.275
X143.05Y-83.475
X144.45Y-81.075
X144.45Y-82.275
X144.45Y-83.475
T2
X137.698Y-83.189
X139.049Y-81.026
X139.278Y-82.23
X141.682Y-85.254
X147.789Y-81.355
X157.519Y-88.037
X158.102Y-88.605
X164.517Y-88.606
T4
X117.4Y-100.547
X119.4Y-100.547
X119.75Y-82.45
X121.4Y-100.547
X121.75Y-82.45
X137.25Y-77.48
X137.25Y-85.1
X137.45Y-87.83
X137.45Y-95.45
X140.45Y-89.55
X144.5Y-94.24
X144.5Y-101.86
X148.07Y-89.55
X149.63Y-94.75
X149.84Y-100.9
X157.25Y-94.75
X157.46Y-100.9
X160.6Y-95.95
X162.6Y-95.95
T5
X115.3Y-80.1
X115.3Y-85.1
T6
X129.05Y-81.73
X129.05Y-84.27
X129.15Y-89.01
X129.15Y-91.55
X131.0Y-99.65
X131.0Y-102.19
T7
X137.7Y-99.1
X137.7Y-101.64
X167.65Y-88.45
X167.65Y-90.99
T8
X115.3Y-100.547
X123.5Y-100.547
T3
G00X112.25Y-79.1
M15
G01X112.95Y-79.1
M16
G05
G00X112.95Y-86.1
M15
G01X112.25Y-86.1
M16
G05
M30
