%TF.GenerationSoftware,KiCad,Pcbnew,10.0.3*%
%TF.CreationDate,2026-07-07T13:46:15+05:30*%
%TF.ProjectId,18650_battery_chargering,31383635-305f-4626-9174-746572795f63,rev?*%
%TF.SameCoordinates,Original*%
%TF.FileFunction,Soldermask,Top*%
%TF.FilePolarity,Negative*%
%FSLAX46Y46*%
G04 Gerber Fmt 4.6, Leading zero omitted, Abs format (unit mm)*
G04 Created by KiCad (PCBNEW 10.0.3) date 2026-07-07 13:46:15*
%MOMM*%
%LPD*%
G01*
G04 APERTURE LIST*
G04 Aperture macros list*
%AMRoundRect*
0 Rectangle with rounded corners*
0 $1 Rounding radius*
0 $2 $3 $4 $5 $6 $7 $8 $9 X,Y pos of 4 corners*
0 Add a 4 corners polygon primitive as box body*
4,1,4,$2,$3,$4,$5,$6,$7,$8,$9,$2,$3,0*
0 Add four circle primitives for the rounded corners*
1,1,$1+$1,$2,$3*
1,1,$1+$1,$4,$5*
1,1,$1+$1,$6,$7*
1,1,$1+$1,$8,$9*
0 Add four rect primitives between the rounded corners*
20,1,$1+$1,$2,$3,$4,$5,0*
20,1,$1+$1,$4,$5,$6,$7,0*
20,1,$1+$1,$6,$7,$8,$9,0*
20,1,$1+$1,$8,$9,$2,$3,0*%
G04 Aperture macros list end*
%ADD10C,1.600000*%
%ADD11C,1.800000*%
%ADD12R,1.800000X1.800000*%
%ADD13RoundRect,0.250000X0.550000X0.550000X-0.550000X0.550000X-0.550000X-0.550000X0.550000X-0.550000X0*%
%ADD14RoundRect,0.150000X-0.825000X-0.150000X0.825000X-0.150000X0.825000X0.150000X-0.825000X0.150000X0*%
%ADD15R,2.410000X3.300000*%
%ADD16O,2.200000X3.500000*%
%ADD17R,1.500000X2.500000*%
%ADD18O,1.500000X2.500000*%
%ADD19R,1.400000X0.600000*%
%ADD20C,2.100000*%
%ADD21RoundRect,0.100000X-0.575000X0.100000X-0.575000X-0.100000X0.575000X-0.100000X0.575000X0.100000X0*%
%ADD22O,1.900000X1.200000*%
%ADD23R,1.900000X1.200000*%
%ADD24C,1.450000*%
%ADD25RoundRect,0.250000X-0.700000X0.500000X-0.700000X-0.500000X0.700000X-0.500000X0.700000X0.500000X0*%
%ADD26R,1.200000X0.600000*%
%ADD27RoundRect,0.250000X-0.550000X-0.550000X0.550000X-0.550000X0.550000X0.550000X-0.550000X0.550000X0*%
G04 APERTURE END LIST*
D10*
%TO.C,R3*%
X140450000Y-89550000D03*
X148070000Y-89550000D03*
%TD*%
D11*
%TO.C,D2*%
X129150000Y-89010000D03*
D12*
X129150000Y-91550000D03*
%TD*%
D10*
%TO.C,C1*%
X119750000Y-82450000D03*
D13*
X121750000Y-82450000D03*
%TD*%
D14*
%TO.C,U1*%
X141275000Y-80370000D03*
X141275000Y-81640000D03*
X141275000Y-82910000D03*
X141275000Y-84180000D03*
X146225000Y-84180000D03*
X146225000Y-82910000D03*
X146225000Y-81640000D03*
X146225000Y-80370000D03*
D15*
X143750000Y-82275000D03*
%TD*%
D16*
%TO.C,SW1*%
X115300000Y-100547500D03*
X123500000Y-100547500D03*
D17*
X117400000Y-100547500D03*
D18*
X119400000Y-100547500D03*
X121400000Y-100547500D03*
%TD*%
D10*
%TO.C,R6*%
X144500000Y-101860000D03*
X144500000Y-94240000D03*
%TD*%
%TO.C,R5*%
X149840000Y-100900000D03*
X157460000Y-100900000D03*
%TD*%
%TO.C,R4*%
X157250000Y-94750000D03*
X149630000Y-94750000D03*
%TD*%
%TO.C,R2*%
X137250000Y-85100000D03*
X137250000Y-77480000D03*
%TD*%
%TO.C,R1*%
X137450000Y-95450000D03*
X137450000Y-87830000D03*
%TD*%
D19*
%TO.C,Q1*%
X152200000Y-88350000D03*
X152200000Y-89300000D03*
X152200000Y-90250000D03*
X154500000Y-88350000D03*
X154500000Y-89300000D03*
X154500000Y-90250000D03*
%TD*%
D20*
%TO.C,J3*%
X137700000Y-99100000D03*
X137700000Y-101640000D03*
%TD*%
%TO.C,J2*%
X167650000Y-88450000D03*
X167650000Y-90990000D03*
%TD*%
D21*
%TO.C,J1*%
X115300000Y-81300000D03*
X115300000Y-81950000D03*
X115300000Y-82600000D03*
X115300000Y-83250000D03*
X115300000Y-83900000D03*
D22*
X112600000Y-79100000D03*
D23*
X112600000Y-79700000D03*
D24*
X115300000Y-80100000D03*
D25*
X112600000Y-81600000D03*
X112600000Y-83600000D03*
D24*
X115300000Y-85100000D03*
D23*
X112600000Y-85500000D03*
D22*
X112600000Y-86100000D03*
%TD*%
D26*
%TO.C,IC1*%
X162200000Y-90050000D03*
X162200000Y-89100000D03*
X162200000Y-88150000D03*
X159700000Y-88150000D03*
X159700000Y-89100000D03*
X159700000Y-90050000D03*
%TD*%
D12*
%TO.C,D3*%
X131000000Y-99650000D03*
D11*
X131000000Y-102190000D03*
%TD*%
D12*
%TO.C,D1*%
X129050000Y-84270000D03*
D11*
X129050000Y-81730000D03*
%TD*%
D27*
%TO.C,C2*%
X160600000Y-95950000D03*
D10*
X162600000Y-95950000D03*
%TD*%
M02*
