%TF.GenerationSoftware,KiCad,Pcbnew,10.0.3*%
%TF.CreationDate,2026-07-07T13:46:15+05:30*%
%TF.ProjectId,18650_battery_chargering,31383635-305f-4626-9174-746572795f63,rev?*%
%TF.SameCoordinates,Original*%
%TF.FileFunction,Copper,L1,Top*%
%TF.FilePolarity,Positive*%
%FSLAX46Y46*%
G04 Gerber Fmt 4.6, Leading zero omitted, Abs format (unit mm)*
G04 Created by KiCad (PCBNEW 10.0.3) date 2026-07-07 13:46:15*
%MOMM*%
%LPD*%
G01*
G04 APERTURE LIST*
G04 Aperture macros list*
%AMRoundRect*
0 Rectangle with rounded corners*
0 $1 Rounding radius*
0 $2 $3 $4 $5 $6 $7 $8 $9 X,Y pos of 4 corners*
0 Add a 4 corners polygon primitive as box body*
4,1,4,$2,$3,$4,$5,$6,$7,$8,$9,$2,$3,0*
0 Add four circle primitives for the rounded corners*
1,1,$1+$1,$2,$3*
1,1,$1+$1,$4,$5*
1,1,$1+$1,$6,$7*
1,1,$1+$1,$8,$9*
0 Add four rect primitives between the rounded corners*
20,1,$1+$1,$2,$3,$4,$5,0*
20,1,$1+$1,$4,$5,$6,$7,0*
20,1,$1+$1,$6,$7,$8,$9,0*
20,1,$1+$1,$8,$9,$2,$3,0*%
G04 Aperture macros list end*
%TA.AperFunction,ComponentPad*%
%ADD10C,1.600000*%
%TD*%
%TA.AperFunction,ComponentPad*%
%ADD11C,1.800000*%
%TD*%
%TA.AperFunction,ComponentPad*%
%ADD12R,1.800000X1.800000*%
%TD*%
%TA.AperFunction,ComponentPad*%
%ADD13RoundRect,0.250000X0.550000X0.550000X-0.550000X0.550000X-0.550000X-0.550000X0.550000X-0.550000X0*%
%TD*%
%TA.AperFunction,SMDPad,CuDef*%
%ADD14RoundRect,0.150000X-0.825000X-0.150000X0.825000X-0.150000X0.825000X0.150000X-0.825000X0.150000X0*%
%TD*%
%TA.AperFunction,HeatsinkPad*%
%ADD15C,0.500000*%
%TD*%
%TA.AperFunction,HeatsinkPad*%
%ADD16R,2.410000X3.300000*%
%TD*%
%TA.AperFunction,ComponentPad*%
%ADD17O,2.200000X3.500000*%
%TD*%
%TA.AperFunction,ComponentPad*%
%ADD18R,1.500000X2.500000*%
%TD*%
%TA.AperFunction,ComponentPad*%
%ADD19O,1.500000X2.500000*%
%TD*%
%TA.AperFunction,SMDPad,CuDef*%
%ADD20R,1.400000X0.600000*%
%TD*%
%TA.AperFunction,ComponentPad*%
%ADD21C,2.100000*%
%TD*%
%TA.AperFunction,SMDPad,CuDef*%
%ADD22RoundRect,0.100000X-0.575000X0.100000X-0.575000X-0.100000X0.575000X-0.100000X0.575000X0.100000X0*%
%TD*%
%TA.AperFunction,ComponentPad*%
%ADD23O,1.900000X1.200000*%
%TD*%
%TA.AperFunction,SMDPad,CuDef*%
%ADD24R,1.900000X1.200000*%
%TD*%
%TA.AperFunction,ComponentPad*%
%ADD25C,1.450000*%
%TD*%
%TA.AperFunction,SMDPad,CuDef*%
%ADD26RoundRect,0.250000X-0.700000X0.500000X-0.700000X-0.500000X0.700000X-0.500000X0.700000X0.500000X0*%
%TD*%
%TA.AperFunction,SMDPad,CuDef*%
%ADD27R,1.200000X0.600000*%
%TD*%
%TA.AperFunction,ComponentPad*%
%ADD28RoundRect,0.250000X-0.550000X-0.550000X0.550000X-0.550000X0.550000X0.550000X-0.550000X0.550000X0*%
%TD*%
%TA.AperFunction,ViaPad*%
%ADD29C,0.600000*%
%TD*%
%TA.AperFunction,Conductor*%
%ADD30C,0.200000*%
%TD*%
G04 APERTURE END LIST*
D10*
%TO.P,R3,2*%
%TO.N,Net-(U1-PROG)*%
X140450000Y-89550000D03*
%TO.P,R3,1*%
%TO.N,GND*%
X148070000Y-89550000D03*
%TD*%
D11*
%TO.P,D2,2,A_2*%
%TO.N,Net-(D1-A)*%
X129150000Y-89010000D03*
D12*
%TO.P,D2,1,K_1*%
%TO.N,Net-(D2-K)*%
X129150000Y-91550000D03*
%TD*%
D10*
%TO.P,C1,2*%
%TO.N,GND*%
X119750000Y-82450000D03*
D13*
%TO.P,C1,1*%
%TO.N,Net-(D1-A)*%
X121750000Y-82450000D03*
%TD*%
D14*
%TO.P,U1,1,TEMP_1*%
%TO.N,GND*%
X141275000Y-80370000D03*
%TO.P,U1,2,PROG_2*%
%TO.N,Net-(U1-PROG)*%
X141275000Y-81640000D03*
%TO.P,U1,3,GND_3*%
%TO.N,GND*%
X141275000Y-82910000D03*
%TO.P,U1,4,V_{CC}_4*%
%TO.N,Net-(D1-A)*%
X141275000Y-84180000D03*
%TO.P,U1,5,BAT_5*%
%TO.N,Net-(J2-Pin_2)*%
X146225000Y-84180000D03*
%TO.P,U1,6,~{STDBY}_6*%
%TO.N,Net-(U1-~{STDBY})*%
X146225000Y-82910000D03*
%TO.P,U1,7,~{CHRG}_7*%
%TO.N,Net-(U1-~{CHRG})*%
X146225000Y-81640000D03*
%TO.P,U1,8,CE_8*%
%TO.N,Net-(D1-A)*%
X146225000Y-80370000D03*
D15*
%TO.P,U1,9,EPAD_9*%
%TO.N,unconnected-(U1-EPAD-Pad9)*%
X143050000Y-81075000D03*
%TO.N,unconnected-(U1-EPAD-Pad9)_6*%
X143050000Y-82275000D03*
%TO.N,unconnected-(U1-EPAD-Pad9)_2*%
X143050000Y-83475000D03*
D16*
%TO.N,unconnected-(U1-EPAD-Pad9)_5*%
X143750000Y-82275000D03*
D15*
%TO.N,unconnected-(U1-EPAD-Pad9)_1*%
X144450000Y-81075000D03*
%TO.N,unconnected-(U1-EPAD-Pad9)_7*%
X144450000Y-82275000D03*
%TO.N,unconnected-(U1-EPAD-Pad9)_3*%
X144450000Y-83475000D03*
%TD*%
D17*
%TO.P,SW1,*%
%TO.N,*%
X115300000Y-100547500D03*
X123500000Y-100547500D03*
D18*
%TO.P,SW1,1,A_1*%
%TO.N,unconnected-(SW1-A-Pad1)*%
X117400000Y-100547500D03*
D19*
%TO.P,SW1,2,B_2*%
%TO.N,Net-(J2-Pin_2)*%
X119400000Y-100547500D03*
%TO.P,SW1,3,C_3*%
%TO.N,Net-(D3-K)*%
X121400000Y-100547500D03*
%TD*%
D10*
%TO.P,R6,1*%
%TO.N,Net-(D3-A)*%
X144500000Y-101860000D03*
%TO.P,R6,2*%
%TO.N,GND*%
X144500000Y-94240000D03*
%TD*%
%TO.P,R5,1*%
%TO.N,Net-(IC1-VCC)*%
X149840000Y-100900000D03*
%TO.P,R5,2*%
%TO.N,Net-(J2-Pin_2)*%
X157460000Y-100900000D03*
%TD*%
%TO.P,R4,1*%
%TO.N,Net-(IC1-CS)*%
X157250000Y-94750000D03*
%TO.P,R4,2*%
%TO.N,GND*%
X149630000Y-94750000D03*
%TD*%
%TO.P,R2,1*%
%TO.N,Net-(D2-K)*%
X137250000Y-85100000D03*
%TO.P,R2,2*%
%TO.N,Net-(U1-~{STDBY})*%
X137250000Y-77480000D03*
%TD*%
%TO.P,R1,1*%
%TO.N,Net-(D1-K)*%
X137450000Y-95450000D03*
%TO.P,R1,2*%
%TO.N,Net-(U1-~{CHRG})*%
X137450000Y-87830000D03*
%TD*%
D20*
%TO.P,Q1,1,S1_1*%
%TO.N,Net-(IC1-GND)*%
X152200000Y-88350000D03*
%TO.P,Q1,2,D12_1_2*%
%TO.N,Net-(Q1-D12_1)*%
X152200000Y-89300000D03*
%TO.P,Q1,3,S2_3*%
%TO.N,GND*%
X152200000Y-90250000D03*
%TO.P,Q1,4,G2_4*%
%TO.N,Net-(IC1-OC)*%
X154500000Y-88350000D03*
%TO.P,Q1,5,D12_2_5*%
%TO.N,Net-(Q1-D12_1)*%
X154500000Y-89300000D03*
%TO.P,Q1,6,G1_6*%
%TO.N,Net-(IC1-OD)*%
X154500000Y-90250000D03*
%TD*%
D21*
%TO.P,J3,1,Pin_1_1*%
%TO.N,Net-(IC1-GND)*%
X137700000Y-99100000D03*
%TO.P,J3,2,Pin_2_2*%
%TO.N,Net-(D3-K)*%
X137700000Y-101640000D03*
%TD*%
%TO.P,J2,1,Pin_1_1*%
%TO.N,Net-(IC1-GND)*%
X167650000Y-88450000D03*
%TO.P,J2,2,Pin_2_2*%
%TO.N,Net-(J2-Pin_2)*%
X167650000Y-90990000D03*
%TD*%
D22*
%TO.P,J1,1,VBUS_1*%
%TO.N,Net-(D1-A)*%
X115300000Y-81300000D03*
%TO.P,J1,2,D-_2*%
%TO.N,unconnected-(J1-D--Pad2)*%
X115300000Y-81950000D03*
%TO.P,J1,3,D+_3*%
%TO.N,unconnected-(J1-D+-Pad3)*%
X115300000Y-82600000D03*
%TO.P,J1,4,ID_4*%
%TO.N,unconnected-(J1-ID-Pad4)*%
X115300000Y-83250000D03*
%TO.P,J1,5,GND_5*%
%TO.N,GND*%
X115300000Y-83900000D03*
D23*
%TO.P,J1,SH,Shield_SH*%
%TO.N,unconnected-(J1-Shield-PadSH)_2*%
X112600000Y-79100000D03*
D24*
%TO.N,unconnected-(J1-Shield-PadSH)*%
X112600000Y-79700000D03*
D25*
%TO.N,unconnected-(J1-Shield-PadSH)_7*%
X115300000Y-80100000D03*
D26*
%TO.N,unconnected-(J1-Shield-PadSH)_5*%
X112600000Y-81600000D03*
%TO.N,unconnected-(J1-Shield-PadSH)_4*%
X112600000Y-83600000D03*
D25*
%TO.N,unconnected-(J1-Shield-PadSH)_6*%
X115300000Y-85100000D03*
D24*
%TO.N,unconnected-(J1-Shield-PadSH)_1*%
X112600000Y-85500000D03*
D23*
%TO.N,unconnected-(J1-Shield-PadSH)_3*%
X112600000Y-86100000D03*
%TD*%
D27*
%TO.P,IC1,1,OD_1*%
%TO.N,Net-(IC1-OD)*%
X162200000Y-90050000D03*
%TO.P,IC1,2,CS_2*%
%TO.N,Net-(IC1-CS)*%
X162200000Y-89100000D03*
%TO.P,IC1,3,OC_3*%
%TO.N,Net-(IC1-OC)*%
X162200000Y-88150000D03*
%TO.P,IC1,4,TD_4*%
%TO.N,unconnected-(IC1-TD-Pad4)*%
X159700000Y-88150000D03*
%TO.P,IC1,5,VCC_5*%
%TO.N,Net-(IC1-VCC)*%
X159700000Y-89100000D03*
%TO.P,IC1,6,GND_6*%
%TO.N,Net-(IC1-GND)*%
X159700000Y-90050000D03*
%TD*%
D12*
%TO.P,D3,1,K_1*%
%TO.N,Net-(D3-K)*%
X131000000Y-99650000D03*
D11*
%TO.P,D3,2,A_2*%
%TO.N,Net-(D3-A)*%
X131000000Y-102190000D03*
%TD*%
D12*
%TO.P,D1,1,K_1*%
%TO.N,Net-(D1-K)*%
X129050000Y-84270000D03*
D11*
%TO.P,D1,2,A_2*%
%TO.N,Net-(D1-A)*%
X129050000Y-81730000D03*
%TD*%
D28*
%TO.P,C2,1*%
%TO.N,Net-(IC1-GND)*%
X160600000Y-95950000D03*
D10*
%TO.P,C2,2*%
%TO.N,Net-(IC1-VCC)*%
X162600000Y-95950000D03*
%TD*%
D29*
%TO.N,Net-(U1-PROG)*%
X139278000Y-82229500D03*
%TO.N,Net-(U1-~{CHRG})*%
X147789000Y-81355500D03*
%TO.N,Net-(IC1-OC)*%
X164516900Y-88605600D03*
X157519500Y-88037100D03*
%TO.N,Net-(IC1-VCC)*%
X158102200Y-88605200D03*
%TO.N,GND*%
X137697600Y-83188700D03*
X139049400Y-81026000D03*
%TO.N,Net-(D1-A)*%
X141682000Y-85253700D03*
%TD*%
%TO.N,Net-(U1-PROG)*%
D30*
X139867500Y-81640000D02*
X139278000Y-82229500D01*
X141275000Y-81640000D02*
X139867500Y-81640000D01*
%TO.N,Net-(U1-~{STDBY})*%
X147101100Y-82910000D02*
X146225000Y-82910000D01*
X148433400Y-81577700D02*
X147101100Y-82910000D01*
X148433400Y-80926200D02*
X148433400Y-81577700D01*
X144987200Y-77480000D02*
X148433400Y-80926200D01*
X137250000Y-77480000D02*
X144987200Y-77480000D01*
%TO.N,Net-(U1-~{CHRG})*%
X146509500Y-81355500D02*
X146225000Y-81640000D01*
X147789000Y-81355500D02*
X146509500Y-81355500D01*
%TO.N,Net-(Q1-D12_1)*%
X154500000Y-89300000D02*
X152200000Y-89300000D01*
%TO.N,Net-(J2-Pin_2)*%
X165293400Y-84180000D02*
X146225000Y-84180000D01*
X169014000Y-87900600D02*
X165293400Y-84180000D01*
X169014000Y-89626000D02*
X169014000Y-87900600D01*
X167650000Y-90990000D02*
X169014000Y-89626000D01*
X154947600Y-103412400D02*
X157460000Y-100900000D01*
X120713200Y-103412400D02*
X154947600Y-103412400D01*
X119400000Y-102099200D02*
X120713200Y-103412400D01*
X119400000Y-100547500D02*
X119400000Y-102099200D01*
%TO.N,Net-(IC1-OC)*%
X164061300Y-88150000D02*
X164516900Y-88605600D01*
X162200000Y-88150000D02*
X164061300Y-88150000D01*
X155814600Y-88037100D02*
X155501700Y-88350000D01*
X157519500Y-88037100D02*
X155814600Y-88037100D01*
X154500000Y-88350000D02*
X155501700Y-88350000D01*
%TO.N,Net-(IC1-CS)*%
X163101700Y-90504900D02*
X163101700Y-89100000D01*
X158856600Y-94750000D02*
X163101700Y-90504900D01*
X157250000Y-94750000D02*
X158856600Y-94750000D01*
X162200000Y-89100000D02*
X163101700Y-89100000D01*
%TO.N,Net-(IC1-OD)*%
X155903400Y-90651700D02*
X155501700Y-90250000D01*
X160696600Y-90651700D02*
X155903400Y-90651700D01*
X161298300Y-90050000D02*
X160696600Y-90651700D01*
X162200000Y-90050000D02*
X161298300Y-90050000D01*
X154500000Y-90250000D02*
X155501700Y-90250000D01*
%TO.N,Net-(D3-A)*%
X131817900Y-103007900D02*
X131000000Y-102190000D01*
X143352100Y-103007900D02*
X131817900Y-103007900D01*
X144500000Y-101860000D02*
X143352100Y-103007900D01*
%TO.N,Net-(D3-K)*%
X135710000Y-99650000D02*
X137700000Y-101640000D01*
X131000000Y-99650000D02*
X135710000Y-99650000D01*
%TO.N,Net-(D2-K)*%
X136801700Y-85100000D02*
X137250000Y-85100000D01*
X130351700Y-91550000D02*
X136801700Y-85100000D01*
X129150000Y-91550000D02*
X130351700Y-91550000D01*
%TO.N,Net-(IC1-GND)*%
X157450000Y-99100000D02*
X160600000Y-95950000D01*
X137700000Y-99100000D02*
X157450000Y-99100000D01*
X152200000Y-88350000D02*
X153201700Y-88350000D01*
X159700000Y-90050000D02*
X160601700Y-90050000D01*
X160601700Y-90050000D02*
X160601700Y-87538800D01*
X166738800Y-87538800D02*
X167650000Y-88450000D01*
X160601700Y-87538800D02*
X166738800Y-87538800D01*
X153201700Y-88199600D02*
X153201700Y-88350000D01*
X153965900Y-87435400D02*
X153201700Y-88199600D01*
X160498300Y-87435400D02*
X153965900Y-87435400D01*
X160601700Y-87538800D02*
X160498300Y-87435400D01*
%TO.N,Net-(IC1-VCC)*%
X158597000Y-89100000D02*
X158102200Y-88605200D01*
X159700000Y-89100000D02*
X158597000Y-89100000D01*
%TO.N,GND*%
X148770000Y-90250000D02*
X148070000Y-89550000D01*
X152200000Y-90250000D02*
X148770000Y-90250000D01*
X145010000Y-94750000D02*
X144500000Y-94240000D01*
X149630000Y-94750000D02*
X145010000Y-94750000D01*
X119433600Y-83900000D02*
X119750000Y-83583600D01*
X115300000Y-83900000D02*
X119433600Y-83900000D01*
X119750000Y-83583600D02*
X119750000Y-82450000D01*
X140619000Y-81026000D02*
X139049400Y-81026000D01*
X141275000Y-80370000D02*
X140619000Y-81026000D01*
X122497900Y-83583600D02*
X119750000Y-83583600D01*
X123025300Y-83056200D02*
X122497900Y-83583600D01*
X137565100Y-83056200D02*
X123025300Y-83056200D01*
X137697600Y-83188700D02*
X137565100Y-83056200D01*
X139988100Y-83188700D02*
X137697600Y-83188700D01*
X140266800Y-82910000D02*
X139988100Y-83188700D01*
X141275000Y-82910000D02*
X140266800Y-82910000D01*
X145020900Y-89550000D02*
X148070000Y-89550000D01*
X139988100Y-84517200D02*
X145020900Y-89550000D01*
X139988100Y-83188700D02*
X139988100Y-84517200D01*
%TO.N,Net-(D1-A)*%
X123254400Y-81730000D02*
X129050000Y-81730000D01*
X120450500Y-81300000D02*
X115300000Y-81300000D01*
X120804900Y-80945600D02*
X120450500Y-81300000D01*
X122695100Y-80945600D02*
X120804900Y-80945600D01*
X123254400Y-81504900D02*
X122695100Y-80945600D01*
X123254400Y-81730000D02*
X123254400Y-81504900D01*
X123254400Y-82037500D02*
X123254400Y-81730000D01*
X123019000Y-82272900D02*
X123254400Y-82037500D01*
X122686400Y-82272900D02*
X123019000Y-82272900D01*
X122451000Y-82037500D02*
X122686400Y-82272900D01*
X122451000Y-81837500D02*
X122451000Y-82037500D01*
X122362500Y-81749000D02*
X122451000Y-81837500D01*
X121137500Y-81749000D02*
X122362500Y-81749000D01*
X121093300Y-81793200D02*
X121137500Y-81749000D01*
X121750000Y-82450000D02*
X121093300Y-81793200D01*
X131054000Y-79726000D02*
X129050000Y-81730000D01*
X145581000Y-79726000D02*
X131054000Y-79726000D01*
X146225000Y-80370000D02*
X145581000Y-79726000D01*
X141275000Y-84846700D02*
X141275000Y-84180000D01*
X141682000Y-85253700D02*
X141275000Y-84846700D01*
%TD*%
%TA.AperFunction,Conductor*%
%TO.N,GND*%
G36*
X170992539Y-75670185D02*
G01*
X171038294Y-75722989D01*
X171049500Y-75774500D01*
X171049500Y-87124837D01*
X171049489Y-87126463D01*
X170801599Y-106028017D01*
X170781037Y-106094793D01*
X170727638Y-106139851D01*
X170678007Y-106150390D01*
X108473587Y-106349604D01*
X108406485Y-106330135D01*
X108360561Y-106277477D01*
X108349193Y-106226416D01*
X108307228Y-99795148D01*
X113999500Y-99795148D01*
X113999500Y-101299851D01*
X114031522Y-101502034D01*
X114094781Y-101696723D01*
X114142421Y-101790220D01*
X114185991Y-101875731D01*
X114187715Y-101879113D01*
X114308028Y-102044713D01*
X114452786Y-102189471D01*
X114598595Y-102295405D01*
X114618390Y-102309787D01*
X114734607Y-102369003D01*
X114800776Y-102402718D01*
X114800778Y-102402718D01*
X114800781Y-102402720D01*
X114905137Y-102436627D01*
X114995465Y-102465977D01*
X115096557Y-102481988D01*
X115197648Y-102498000D01*
X115197649Y-102498000D01*
X115402351Y-102498000D01*
X115402352Y-102498000D01*
X115604534Y-102465977D01*
X115799219Y-102402720D01*
X115981610Y-102309787D01*
X116111817Y-102215187D01*
X116147213Y-102189471D01*
X116147215Y-102189468D01*
X116147219Y-102189466D01*
X116291966Y-102044719D01*
X116299248Y-102034696D01*
X116341869Y-101976033D01*
X116397199Y-101933366D01*
X116466812Y-101927387D01*
X116511079Y-101945815D01*
X116571769Y-101986367D01*
X116571770Y-101986368D01*
X116630247Y-101997999D01*
X116630250Y-101998000D01*
X116630252Y-101998000D01*
X118169750Y-101998000D01*
X118169751Y-101997999D01*
X118184568Y-101995052D01*
X118228229Y-101986368D01*
X118228229Y-101986367D01*
X118228231Y-101986367D01*
X118294552Y-101942052D01*
X118338867Y-101875731D01*
X118338867Y-101875729D01*
X118338868Y-101875729D01*
X118350499Y-101817252D01*
X118350500Y-101817250D01*
X118350500Y-101596441D01*
X118370185Y-101529402D01*
X118422989Y-101483647D01*
X118492147Y-101473703D01*
X118555703Y-101502728D01*
X118577602Y-101527550D01*
X118661697Y-101653407D01*
X118661700Y-101653411D01*
X118794088Y-101785799D01*
X118794092Y-101785802D01*
X118949765Y-101889820D01*
X118949767Y-101889820D01*
X118949769Y-101889822D01*
X119022952Y-101920135D01*
X119077356Y-101963975D01*
X119099421Y-102030269D01*
X119099500Y-102034696D01*
X119099500Y-102138762D01*
X119119979Y-102215189D01*
X119137715Y-102245908D01*
X119159540Y-102283711D01*
X120472740Y-103596911D01*
X120528689Y-103652860D01*
X120528691Y-103652861D01*
X120528695Y-103652864D01*
X120597204Y-103692417D01*
X120597211Y-103692421D01*
X120673638Y-103712900D01*
X120673640Y-103712900D01*
X154987160Y-103712900D01*
X154987162Y-103712900D01*
X155063589Y-103692421D01*
X155132111Y-103652860D01*
X155188060Y-103596911D01*
X156936165Y-101848804D01*
X156997486Y-101815321D01*
X157067177Y-101820305D01*
X157071254Y-101821909D01*
X157168165Y-101862051D01*
X157168169Y-101862051D01*
X157168170Y-101862052D01*
X157361456Y-101900500D01*
X157361459Y-101900500D01*
X157558543Y-101900500D01*
X157688582Y-101874632D01*
X157751835Y-101862051D01*
X157933914Y-101786632D01*
X158097782Y-101677139D01*
X158237139Y-101537782D01*
X158346632Y-101373914D01*
X158422051Y-101191835D01*
X158460500Y-100998541D01*
X158460500Y-100801459D01*
X158460500Y-100801456D01*
X158422052Y-100608170D01*
X158422051Y-100608169D01*
X158422051Y-100608165D01*
X158387981Y-100525912D01*
X158346635Y-100426092D01*
X158346628Y-100426079D01*
X158237139Y-100262218D01*
X158237136Y-100262214D01*
X158097785Y-100122863D01*
X158097781Y-100122860D01*
X157933920Y-100013371D01*
X157933907Y-100013364D01*
X157751839Y-99937950D01*
X157751829Y-99937947D01*
X157558543Y-99899500D01*
X157558541Y-99899500D01*
X157361459Y-99899500D01*
X157361457Y-99899500D01*
X157168170Y-99937947D01*
X157168160Y-99937950D01*
X156986092Y-100013364D01*
X156986079Y-100013371D01*
X156822218Y-100122860D01*
X156822214Y-100122863D01*
X156682863Y-100262214D01*
X156682860Y-100262218D01*
X156573371Y-100426079D01*
X156573364Y-100426092D01*
X156497950Y-100608160D01*
X156497947Y-100608170D01*
X156459500Y-100801456D01*
X156459500Y-100801459D01*
X156459500Y-100998541D01*
X156459500Y-100998543D01*
X156459499Y-100998543D01*
X156497947Y-101191829D01*
X156497950Y-101191839D01*
X156538072Y-101288702D01*
X156545541Y-101358171D01*
X156514266Y-101420650D01*
X156511192Y-101423835D01*
X154859448Y-103075581D01*
X154798125Y-103109066D01*
X154771767Y-103111900D01*
X143972432Y-103111900D01*
X143905393Y-103092215D01*
X143859638Y-103039411D01*
X143849694Y-102970253D01*
X143878719Y-102906697D01*
X143884730Y-102900239D01*
X143976166Y-102808803D01*
X144037485Y-102775321D01*
X144107177Y-102780305D01*
X144111254Y-102781909D01*
X144208165Y-102822051D01*
X144208169Y-102822051D01*
X144208170Y-102822052D01*
X144401456Y-102860500D01*
X144401459Y-102860500D01*
X144598543Y-102860500D01*
X144728582Y-102834632D01*
X144791835Y-102822051D01*
X144973914Y-102746632D01*
X145137782Y-102637139D01*
X145277139Y-102497782D01*
X145386632Y-102333914D01*
X145462051Y-102151835D01*
X145492651Y-101998000D01*
X145500500Y-101958543D01*
X145500500Y-101761456D01*
X145462052Y-101568170D01*
X145462051Y-101568169D01*
X145462051Y-101568165D01*
X145462049Y-101568160D01*
X145386635Y-101386092D01*
X145386628Y-101386079D01*
X145277139Y-101222218D01*
X145277136Y-101222214D01*
X145137785Y-101082863D01*
X145137781Y-101082860D01*
X145011592Y-100998543D01*
X148839499Y-100998543D01*
X148877947Y-101191829D01*
X148877950Y-101191839D01*
X148953364Y-101373907D01*
X148953371Y-101373920D01*
X149062860Y-101537781D01*
X149062863Y-101537785D01*
X149202214Y-101677136D01*
X149202218Y-101677139D01*
X149366079Y-101786628D01*
X149366092Y-101786635D01*
X149516188Y-101848806D01*
X149548165Y-101862051D01*
X149548169Y-101862051D01*
X149548170Y-101862052D01*
X149741456Y-101900500D01*
X149741459Y-101900500D01*
X149938543Y-101900500D01*
X150068582Y-101874632D01*
X150131835Y-101862051D01*
X150313914Y-101786632D01*
X150477782Y-101677139D01*
X150617139Y-101537782D01*
X150726632Y-101373914D01*
X150802051Y-101191835D01*
X150840500Y-100998541D01*
X150840500Y-100801459D01*
X150840500Y-100801456D01*
X150802052Y-100608170D01*
X150802051Y-100608169D01*
X150802051Y-100608165D01*
X150767981Y-100525912D01*
X150726635Y-100426092D01*
X150726628Y-100426079D01*
X150617139Y-100262218D01*
X150617136Y-100262214D01*
X150477785Y-100122863D01*
X150477781Y-100122860D01*
X150313920Y-100013371D01*
X150313907Y-100013364D01*
X150131839Y-99937950D01*
X150131829Y-99937947D01*
X149938543Y-99899500D01*
X149938541Y-99899500D01*
X149741459Y-99899500D01*
X149741457Y-99899500D01*
X149548170Y-99937947D01*
X149548160Y-99937950D01*
X149366092Y-100013364D01*
X149366079Y-100013371D01*
X149202218Y-100122860D01*
X149202214Y-100122863D01*
X149062863Y-100262214D01*
X149062860Y-100262218D01*
X148953371Y-100426079D01*
X148953364Y-100426092D01*
X148877950Y-100608160D01*
X148877947Y-100608170D01*
X148839500Y-100801456D01*
X148839500Y-100801459D01*
X148839500Y-100998541D01*
X148839500Y-100998543D01*
X148839499Y-100998543D01*
X145011592Y-100998543D01*
X144973920Y-100973371D01*
X144973907Y-100973364D01*
X144820756Y-100909928D01*
X144791839Y-100897950D01*
X144791829Y-100897947D01*
X144598543Y-100859500D01*
X144598541Y-100859500D01*
X144401459Y-100859500D01*
X144401457Y-100859500D01*
X144208170Y-100897947D01*
X144208160Y-100897950D01*
X144026092Y-100973364D01*
X144026079Y-100973371D01*
X143862218Y-101082860D01*
X143862214Y-101082863D01*
X143722863Y-101222214D01*
X143722860Y-101222218D01*
X143613371Y-101386079D01*
X143613364Y-101386092D01*
X143537950Y-101568160D01*
X143537947Y-101568170D01*
X143499500Y-101761456D01*
X143499500Y-101761459D01*
X143499500Y-101958541D01*
X143499500Y-101958543D01*
X143499499Y-101958543D01*
X143537947Y-102151829D01*
X143537950Y-102151839D01*
X143578072Y-102248702D01*
X143585541Y-102318171D01*
X143554266Y-102380650D01*
X143551193Y-102383835D01*
X143263946Y-102671082D01*
X143202626Y-102704566D01*
X143176267Y-102707400D01*
X138700436Y-102707400D01*
X138633397Y-102687715D01*
X138587642Y-102634911D01*
X138577698Y-102565753D01*
X138606723Y-102502197D01*
X138612755Y-102495719D01*
X138653828Y-102454646D01*
X138769524Y-102295405D01*
X138858884Y-102120025D01*
X138919709Y-101932826D01*
X138926520Y-101889821D01*
X138950500Y-101738422D01*
X138950500Y-101541577D01*
X138919709Y-101347173D01*
X138862183Y-101170128D01*
X138858884Y-101159975D01*
X138858882Y-101159972D01*
X138858882Y-101159970D01*
X138807483Y-101059094D01*
X138769524Y-100984595D01*
X138653828Y-100825354D01*
X138514646Y-100686172D01*
X138407279Y-100608165D01*
X138355403Y-100570474D01*
X138178787Y-100480485D01*
X138127990Y-100432511D01*
X138111195Y-100364690D01*
X138133732Y-100298555D01*
X138178787Y-100259515D01*
X138355403Y-100169525D01*
X138355402Y-100169525D01*
X138355405Y-100169524D01*
X138514646Y-100053828D01*
X138653828Y-99914646D01*
X138769524Y-99755405D01*
X138858884Y-99580025D01*
X138889376Y-99486180D01*
X138928814Y-99428506D01*
X138993173Y-99401308D01*
X139007307Y-99400500D01*
X157489560Y-99400500D01*
X157489562Y-99400500D01*
X157565989Y-99380021D01*
X157634511Y-99340460D01*
X157690460Y-99284511D01*
X159988152Y-96986819D01*
X160049475Y-96953334D01*
X160075833Y-96950500D01*
X161204270Y-96950500D01*
X161234699Y-96947646D01*
X161234701Y-96947646D01*
X161298790Y-96925219D01*
X161362882Y-96902793D01*
X161472150Y-96822150D01*
X161552793Y-96712882D01*
X161573653Y-96653266D01*
X161592266Y-96600076D01*
X161632988Y-96543300D01*
X161697940Y-96517553D01*
X161766502Y-96531010D01*
X161812409Y-96572140D01*
X161822860Y-96587781D01*
X161822863Y-96587785D01*
X161962214Y-96727136D01*
X161962218Y-96727139D01*
X162126079Y-96836628D01*
X162126092Y-96836635D01*
X162285814Y-96902793D01*
X162308165Y-96912051D01*
X162308169Y-96912051D01*
X162308170Y-96912052D01*
X162501456Y-96950500D01*
X162501459Y-96950500D01*
X162698543Y-96950500D01*
X162828582Y-96924632D01*
X162891835Y-96912051D01*
X163073914Y-96836632D01*
X163237782Y-96727139D01*
X163377139Y-96587782D01*
X163486632Y-96423914D01*
X163562051Y-96241835D01*
X163592694Y-96087785D01*
X163600500Y-96048543D01*
X163600500Y-95851456D01*
X163562052Y-95658170D01*
X163562051Y-95658169D01*
X163562051Y-95658165D01*
X163553130Y-95636628D01*
X163486635Y-95476092D01*
X163486628Y-95476079D01*
X163377139Y-95312218D01*
X163377136Y-95312214D01*
X163237785Y-95172863D01*
X163237781Y-95172860D01*
X163073920Y-95063371D01*
X163073907Y-95063364D01*
X162891839Y-94987950D01*
X162891829Y-94987947D01*
X162698543Y-94949500D01*
X162698541Y-94949500D01*
X162501459Y-94949500D01*
X162501457Y-94949500D01*
X162308170Y-94987947D01*
X162308160Y-94987950D01*
X162126092Y-95063364D01*
X162126079Y-95063371D01*
X161962218Y-95172860D01*
X161962214Y-95172863D01*
X161822861Y-95312216D01*
X161812408Y-95327861D01*
X161758794Y-95372665D01*
X161689469Y-95381371D01*
X161626442Y-95351215D01*
X161592266Y-95299924D01*
X161572926Y-95244656D01*
X161552793Y-95187118D01*
X161472150Y-95077850D01*
X161362882Y-94997207D01*
X161362880Y-94997206D01*
X161234700Y-94952353D01*
X161204270Y-94949500D01*
X161204266Y-94949500D01*
X159995734Y-94949500D01*
X159995730Y-94949500D01*
X159965300Y-94952353D01*
X159965298Y-94952353D01*
X159837119Y-94997206D01*
X159837117Y-94997207D01*
X159727850Y-95077850D01*
X159647207Y-95187117D01*
X159647206Y-95187119D01*
X159602353Y-95315298D01*
X159602353Y-95315300D01*
X159599500Y-95345730D01*
X159599500Y-96474167D01*
X159579815Y-96541206D01*
X159563181Y-96561848D01*
X157361848Y-98763181D01*
X157300525Y-98796666D01*
X157274167Y-98799500D01*
X139007307Y-98799500D01*
X138940268Y-98779815D01*
X138894513Y-98727011D01*
X138889376Y-98713819D01*
X138882378Y-98692281D01*
X138858884Y-98619975D01*
X138858882Y-98619972D01*
X138858882Y-98619970D01*
X138769523Y-98444594D01*
X138653828Y-98285354D01*
X138514646Y-98146172D01*
X138355405Y-98030476D01*
X138180029Y-97941117D01*
X137992826Y-97880290D01*
X137798422Y-97849500D01*
X137798417Y-97849500D01*
X137601583Y-97849500D01*
X137601578Y-97849500D01*
X137407173Y-97880290D01*
X137219970Y-97941117D01*
X137044594Y-98030476D01*
X136953741Y-98096485D01*
X136885354Y-98146172D01*
X136885352Y-98146174D01*
X136885351Y-98146174D01*
X136746174Y-98285351D01*
X136746174Y-98285352D01*
X136746172Y-98285354D01*
X136696485Y-98353741D01*
X136630476Y-98444594D01*
X136541117Y-98619970D01*
X136480290Y-98807173D01*
X136449500Y-99001577D01*
X136449500Y-99198422D01*
X136480290Y-99392826D01*
X136541117Y-99580029D01*
X136602940Y-99701362D01*
X136630476Y-99755405D01*
X136740831Y-99907295D01*
X136764311Y-99973100D01*
X136748486Y-100041154D01*
X136698380Y-100089849D01*
X136629902Y-100103725D01*
X136564793Y-100078376D01*
X136552832Y-100067861D01*
X135894512Y-99409541D01*
X135894507Y-99409537D01*
X135878853Y-99400499D01*
X135878851Y-99400499D01*
X135849297Y-99383436D01*
X135825990Y-99369979D01*
X135800513Y-99363152D01*
X135749562Y-99349500D01*
X135749560Y-99349500D01*
X132224500Y-99349500D01*
X132157461Y-99329815D01*
X132111706Y-99277011D01*
X132100500Y-99225500D01*
X132100500Y-98730249D01*
X132100499Y-98730247D01*
X132088868Y-98671770D01*
X132088867Y-98671769D01*
X132044552Y-98605447D01*
X131978230Y-98561132D01*
X131978229Y-98561131D01*
X131919752Y-98549500D01*
X131919748Y-98549500D01*
X130080252Y-98549500D01*
X130080247Y-98549500D01*
X130021770Y-98561131D01*
X130021769Y-98561132D01*
X129955447Y-98605447D01*
X129911132Y-98671769D01*
X129911131Y-98671770D01*
X129899500Y-98730247D01*
X129899500Y-100569752D01*
X129911131Y-100628229D01*
X129911132Y-100628230D01*
X129955447Y-100694552D01*
X130021769Y-100738867D01*
X130021770Y-100738868D01*
X130080247Y-100750499D01*
X130080250Y-100750500D01*
X130080252Y-100750500D01*
X131919750Y-100750500D01*
X131919751Y-100750499D01*
X131934568Y-100747552D01*
X131978229Y-100738868D01*
X131978229Y-100738867D01*
X131978231Y-100738867D01*
X132044552Y-100694552D01*
X132088867Y-100628231D01*
X132088867Y-100628229D01*
X132088868Y-100628229D01*
X132100355Y-100570476D01*
X132100500Y-100569748D01*
X132100500Y-100074500D01*
X132120185Y-100007461D01*
X132172989Y-99961706D01*
X132224500Y-99950500D01*
X135534167Y-99950500D01*
X135601206Y-99970185D01*
X135621848Y-99986819D01*
X136563108Y-100928079D01*
X136596593Y-100989402D01*
X136591609Y-101059094D01*
X136585912Y-101072054D01*
X136541118Y-101159967D01*
X136480290Y-101347173D01*
X136449500Y-101541577D01*
X136449500Y-101738422D01*
X136480290Y-101932826D01*
X136541117Y-102120029D01*
X136620900Y-102276611D01*
X136630476Y-102295405D01*
X136746172Y-102454646D01*
X136746174Y-102454648D01*
X136787245Y-102495719D01*
X136820730Y-102557042D01*
X136815746Y-102626734D01*
X136773874Y-102682667D01*
X136708410Y-102707084D01*
X136699564Y-102707400D01*
X132159691Y-102707400D01*
X132092652Y-102687715D01*
X132046897Y-102634911D01*
X132036953Y-102565753D01*
X132041757Y-102545092D01*
X132073402Y-102447701D01*
X132100500Y-102276611D01*
X132100500Y-102103389D01*
X132073402Y-101932299D01*
X132019873Y-101767555D01*
X131941232Y-101613212D01*
X131839414Y-101473072D01*
X131716928Y-101350586D01*
X131576788Y-101248768D01*
X131422445Y-101170127D01*
X131257701Y-101116598D01*
X131257699Y-101116597D01*
X131257698Y-101116597D01*
X131126271Y-101095781D01*
X131086611Y-101089500D01*
X130913389Y-101089500D01*
X130873728Y-101095781D01*
X130742302Y-101116597D01*
X130577552Y-101170128D01*
X130423211Y-101248768D01*
X130352901Y-101299852D01*
X130283072Y-101350586D01*
X130283070Y-101350588D01*
X130283069Y-101350588D01*
X130160588Y-101473069D01*
X130160588Y-101473070D01*
X130160586Y-101473072D01*
X130121005Y-101527550D01*
X130058768Y-101613211D01*
X129980128Y-101767552D01*
X129980127Y-101767554D01*
X129980127Y-101767555D01*
X129972763Y-101790220D01*
X129926597Y-101932302D01*
X129899500Y-102103389D01*
X129899500Y-102276610D01*
X129919473Y-102402720D01*
X129926598Y-102447701D01*
X129980127Y-102612445D01*
X130058768Y-102766788D01*
X130160586Y-102906928D01*
X130160589Y-102906931D01*
X130160592Y-102906935D01*
X130160964Y-102907371D01*
X130161053Y-102907570D01*
X130163450Y-102910869D01*
X130162756Y-102911372D01*
X130189533Y-102971133D01*
X130179095Y-103040218D01*
X130132963Y-103092693D01*
X130066672Y-103111900D01*
X120889033Y-103111900D01*
X120821994Y-103092215D01*
X120801352Y-103075581D01*
X119815540Y-102089769D01*
X119782055Y-102028446D01*
X119787039Y-101958754D01*
X119828911Y-101902821D01*
X119845347Y-101893593D01*
X119844865Y-101892690D01*
X119850227Y-101889823D01*
X119850231Y-101889822D01*
X120005908Y-101785802D01*
X120138302Y-101653408D01*
X120242322Y-101497731D01*
X120285439Y-101393638D01*
X120329280Y-101339234D01*
X120395574Y-101317169D01*
X120463273Y-101334448D01*
X120510884Y-101385585D01*
X120514561Y-101393638D01*
X120557674Y-101497724D01*
X120557681Y-101497737D01*
X120661697Y-101653407D01*
X120661700Y-101653411D01*
X120794088Y-101785799D01*
X120794092Y-101785802D01*
X120949762Y-101889818D01*
X120949768Y-101889821D01*
X120949769Y-101889822D01*
X121122749Y-101961473D01*
X121247901Y-101986367D01*
X121306379Y-101997999D01*
X121306383Y-101998000D01*
X121306384Y-101998000D01*
X121493617Y-101998000D01*
X121493618Y-101997999D01*
X121677251Y-101961473D01*
X121850231Y-101889822D01*
X122005908Y-101785802D01*
X122106661Y-101685048D01*
X122167982Y-101651565D01*
X122237674Y-101656549D01*
X122293608Y-101698420D01*
X122304826Y-101716436D01*
X122385991Y-101875731D01*
X122387715Y-101879113D01*
X122508028Y-102044713D01*
X122652786Y-102189471D01*
X122798595Y-102295405D01*
X122818390Y-102309787D01*
X122934607Y-102369003D01*
X123000776Y-102402718D01*
X123000778Y-102402718D01*
X123000781Y-102402720D01*
X123105137Y-102436627D01*
X123195465Y-102465977D01*
X123296557Y-102481988D01*
X123397648Y-102498000D01*
X123397649Y-102498000D01*
X123602351Y-102498000D01*
X123602352Y-102498000D01*
X123804534Y-102465977D01*
X123999219Y-102402720D01*
X124181610Y-102309787D01*
X124311817Y-102215187D01*
X124347213Y-102189471D01*
X124347215Y-102189468D01*
X124347219Y-102189466D01*
X124491966Y-102044719D01*
X124491968Y-102044715D01*
X124491971Y-102044713D01*
X124550629Y-101963975D01*
X124612287Y-101879110D01*
X124705220Y-101696719D01*
X124768477Y-101502034D01*
X124800500Y-101299852D01*
X124800500Y-99795148D01*
X124769159Y-99597269D01*
X124768477Y-99592965D01*
X124720775Y-99446154D01*
X124705220Y-99398281D01*
X124705218Y-99398278D01*
X124705218Y-99398276D01*
X124659829Y-99309197D01*
X124612287Y-99215890D01*
X124599592Y-99198417D01*
X124491971Y-99050286D01*
X124347213Y-98905528D01*
X124181613Y-98785215D01*
X124181612Y-98785214D01*
X124181610Y-98785213D01*
X124124653Y-98756191D01*
X123999223Y-98692281D01*
X123804534Y-98629022D01*
X123629995Y-98601378D01*
X123602352Y-98597000D01*
X123397648Y-98597000D01*
X123373329Y-98600851D01*
X123195465Y-98629022D01*
X123000776Y-98692281D01*
X122818386Y-98785215D01*
X122652786Y-98905528D01*
X122508028Y-99050286D01*
X122387715Y-99215886D01*
X122304826Y-99378563D01*
X122256851Y-99429359D01*
X122189030Y-99446154D01*
X122122895Y-99423616D01*
X122106660Y-99409949D01*
X122005911Y-99309200D01*
X122005907Y-99309197D01*
X121850237Y-99205181D01*
X121850228Y-99205176D01*
X121677251Y-99133527D01*
X121677243Y-99133525D01*
X121493620Y-99097000D01*
X121493616Y-99097000D01*
X121306384Y-99097000D01*
X121306379Y-99097000D01*
X121122756Y-99133525D01*
X121122748Y-99133527D01*
X120949771Y-99205176D01*
X120949762Y-99205181D01*
X120794092Y-99309197D01*
X120794088Y-99309200D01*
X120661700Y-99441588D01*
X120661697Y-99441592D01*
X120557681Y-99597262D01*
X120557676Y-99597272D01*
X120514561Y-99701362D01*
X120470720Y-99755765D01*
X120404426Y-99777830D01*
X120336726Y-99760551D01*
X120289116Y-99709413D01*
X120285439Y-99701362D01*
X120276410Y-99679565D01*
X120242322Y-99597269D01*
X120242320Y-99597266D01*
X120242318Y-99597262D01*
X120138302Y-99441592D01*
X120138299Y-99441588D01*
X120005911Y-99309200D01*
X120005907Y-99309197D01*
X119850237Y-99205181D01*
X119850228Y-99205176D01*
X119677251Y-99133527D01*
X119677243Y-99133525D01*
X119493620Y-99097000D01*
X119493616Y-99097000D01*
X119306384Y-99097000D01*
X119306379Y-99097000D01*
X119122756Y-99133525D01*
X119122748Y-99133527D01*
X118949771Y-99205176D01*
X118949762Y-99205181D01*
X118794092Y-99309197D01*
X118794088Y-99309200D01*
X118661700Y-99441588D01*
X118661697Y-99441592D01*
X118577602Y-99567449D01*
X118523990Y-99612254D01*
X118454665Y-99620961D01*
X118391637Y-99590806D01*
X118354918Y-99531363D01*
X118350500Y-99498558D01*
X118350500Y-99277749D01*
X118350499Y-99277747D01*
X118338868Y-99219270D01*
X118338867Y-99219269D01*
X118294552Y-99152947D01*
X118228230Y-99108632D01*
X118228229Y-99108631D01*
X118169752Y-99097000D01*
X118169748Y-99097000D01*
X116630252Y-99097000D01*
X116630247Y-99097000D01*
X116571770Y-99108631D01*
X116571770Y-99108632D01*
X116511078Y-99149185D01*
X116444401Y-99170062D01*
X116377021Y-99151577D01*
X116341870Y-99118967D01*
X116291971Y-99050287D01*
X116291967Y-99050282D01*
X116147213Y-98905528D01*
X115981613Y-98785215D01*
X115981612Y-98785214D01*
X115981610Y-98785213D01*
X115924653Y-98756191D01*
X115799223Y-98692281D01*
X115604534Y-98629022D01*
X115429995Y-98601378D01*
X115402352Y-98597000D01*
X115197648Y-98597000D01*
X115173329Y-98600851D01*
X114995465Y-98629022D01*
X114800776Y-98692281D01*
X114618386Y-98785215D01*
X114452786Y-98905528D01*
X114308028Y-99050286D01*
X114187715Y-99215886D01*
X114094781Y-99398276D01*
X114031522Y-99592965D01*
X113999500Y-99795148D01*
X108307228Y-99795148D01*
X108285403Y-96450500D01*
X108279517Y-95548543D01*
X136449499Y-95548543D01*
X136487947Y-95741829D01*
X136487950Y-95741839D01*
X136563364Y-95923907D01*
X136563371Y-95923920D01*
X136672860Y-96087781D01*
X136672863Y-96087785D01*
X136812214Y-96227136D01*
X136812218Y-96227139D01*
X136976079Y-96336628D01*
X136976092Y-96336635D01*
X137158160Y-96412049D01*
X137158165Y-96412051D01*
X137158169Y-96412051D01*
X137158170Y-96412052D01*
X137351456Y-96450500D01*
X137351459Y-96450500D01*
X137548543Y-96450500D01*
X137682196Y-96423914D01*
X137741835Y-96412051D01*
X137923914Y-96336632D01*
X138087782Y-96227139D01*
X138227139Y-96087782D01*
X138336632Y-95923914D01*
X138412051Y-95741835D01*
X138417975Y-95712052D01*
X138450500Y-95548543D01*
X138450500Y-95351456D01*
X138450499Y-95351454D01*
X138439550Y-95296406D01*
X138412052Y-95158170D01*
X138412051Y-95158169D01*
X138412051Y-95158165D01*
X138378784Y-95077850D01*
X138336635Y-94976092D01*
X138336628Y-94976079D01*
X138227139Y-94812218D01*
X138227136Y-94812214D01*
X138087785Y-94672863D01*
X138087781Y-94672860D01*
X137923920Y-94563371D01*
X137923907Y-94563364D01*
X137741839Y-94487950D01*
X137741829Y-94487947D01*
X137548543Y-94449500D01*
X137548541Y-94449500D01*
X137351459Y-94449500D01*
X137351457Y-94449500D01*
X137158170Y-94487947D01*
X137158160Y-94487950D01*
X136976092Y-94563364D01*
X136976079Y-94563371D01*
X136812218Y-94672860D01*
X136812214Y-94672863D01*
X136672863Y-94812214D01*
X136672860Y-94812218D01*
X136563371Y-94976079D01*
X136563364Y-94976092D01*
X136487950Y-95158160D01*
X136487947Y-95158170D01*
X136449500Y-95351456D01*
X136449500Y-95351459D01*
X136449500Y-95548541D01*
X136449500Y-95548543D01*
X136449499Y-95548543D01*
X108279517Y-95548543D01*
X108278197Y-95346176D01*
X108270311Y-94137682D01*
X143200000Y-94137682D01*
X143200000Y-94342317D01*
X143232009Y-94544417D01*
X143295244Y-94739031D01*
X143388141Y-94921350D01*
X143388147Y-94921359D01*
X143420523Y-94965921D01*
X143420524Y-94965922D01*
X144100000Y-94286446D01*
X144100000Y-94292661D01*
X144127259Y-94394394D01*
X144179920Y-94485606D01*
X144254394Y-94560080D01*
X144345606Y-94612741D01*
X144447339Y-94640000D01*
X144453553Y-94640000D01*
X143774076Y-95319474D01*
X143818650Y-95351859D01*
X144000968Y-95444755D01*
X144195582Y-95507990D01*
X144397683Y-95540000D01*
X144602317Y-95540000D01*
X144804417Y-95507990D01*
X144999031Y-95444755D01*
X145181349Y-95351859D01*
X145225921Y-95319474D01*
X144546447Y-94640000D01*
X144552661Y-94640000D01*
X144654394Y-94612741D01*
X144745606Y-94560080D01*
X144820080Y-94485606D01*
X144872741Y-94394394D01*
X144900000Y-94292661D01*
X144900000Y-94286447D01*
X145579474Y-94965921D01*
X145611859Y-94921349D01*
X145704755Y-94739031D01*
X145734437Y-94647682D01*
X148330000Y-94647682D01*
X148330000Y-94852317D01*
X148362009Y-95054417D01*
X148425244Y-95249031D01*
X148518141Y-95431350D01*
X148518147Y-95431359D01*
X148550523Y-95475921D01*
X148550524Y-95475922D01*
X149230000Y-94796446D01*
X149230000Y-94802661D01*
X149257259Y-94904394D01*
X149309920Y-94995606D01*
X149384394Y-95070080D01*
X149475606Y-95122741D01*
X149577339Y-95150000D01*
X149583553Y-95150000D01*
X148904076Y-95829474D01*
X148948650Y-95861859D01*
X149130968Y-95954755D01*
X149325582Y-96017990D01*
X149527683Y-96050000D01*
X149732317Y-96050000D01*
X149934417Y-96017990D01*
X150129031Y-95954755D01*
X150311349Y-95861859D01*
X150355921Y-95829474D01*
X149676447Y-95150000D01*
X149682661Y-95150000D01*
X149784394Y-95122741D01*
X149875606Y-95070080D01*
X149950080Y-94995606D01*
X150002741Y-94904394D01*
X150030000Y-94802661D01*
X150030000Y-94796447D01*
X150709474Y-95475921D01*
X150741859Y-95431349D01*
X150834755Y-95249031D01*
X150897990Y-95054417D01*
X150930000Y-94852317D01*
X150930000Y-94647682D01*
X150897990Y-94445582D01*
X150834755Y-94250968D01*
X150741859Y-94068650D01*
X150709474Y-94024077D01*
X150709474Y-94024076D01*
X150030000Y-94703551D01*
X150030000Y-94697339D01*
X150002741Y-94595606D01*
X149950080Y-94504394D01*
X149875606Y-94429920D01*
X149784394Y-94377259D01*
X149682661Y-94350000D01*
X149676446Y-94350000D01*
X150355922Y-93670524D01*
X150355921Y-93670523D01*
X150311359Y-93638147D01*
X150311350Y-93638141D01*
X150129031Y-93545244D01*
X149934417Y-93482009D01*
X149732317Y-93450000D01*
X149527683Y-93450000D01*
X149325582Y-93482009D01*
X149130968Y-93545244D01*
X148948644Y-93638143D01*
X148904077Y-93670523D01*
X148904077Y-93670524D01*
X149583554Y-94350000D01*
X149577339Y-94350000D01*
X149475606Y-94377259D01*
X149384394Y-94429920D01*
X149309920Y-94504394D01*
X149257259Y-94595606D01*
X149230000Y-94697339D01*
X149230000Y-94703553D01*
X148550524Y-94024077D01*
X148550523Y-94024077D01*
X148518143Y-94068644D01*
X148425244Y-94250968D01*
X148362009Y-94445582D01*
X148330000Y-94647682D01*
X145734437Y-94647682D01*
X145748469Y-94604497D01*
X145748469Y-94604496D01*
X145767989Y-94544421D01*
X145767989Y-94544418D01*
X145800000Y-94342317D01*
X145800000Y-94137682D01*
X145767990Y-93935582D01*
X145709672Y-93756102D01*
X145709671Y-93756100D01*
X145704755Y-93740970D01*
X145611859Y-93558650D01*
X145579474Y-93514077D01*
X145579474Y-93514076D01*
X144900000Y-94193551D01*
X144900000Y-94187339D01*
X144872741Y-94085606D01*
X144820080Y-93994394D01*
X144745606Y-93919920D01*
X144654394Y-93867259D01*
X144552661Y-93840000D01*
X144546446Y-93840000D01*
X145225922Y-93160524D01*
X145225921Y-93160523D01*
X145181359Y-93128147D01*
X145181350Y-93128141D01*
X144999031Y-93035244D01*
X144804417Y-92972009D01*
X144602317Y-92940000D01*
X144397683Y-92940000D01*
X144195582Y-92972009D01*
X144000968Y-93035244D01*
X143818644Y-93128143D01*
X143774077Y-93160523D01*
X143774077Y-93160524D01*
X144453554Y-93840000D01*
X144447339Y-93840000D01*
X144345606Y-93867259D01*
X144254394Y-93919920D01*
X144179920Y-93994394D01*
X144127259Y-94085606D01*
X144100000Y-94187339D01*
X144100000Y-94193553D01*
X143420524Y-93514077D01*
X143420523Y-93514077D01*
X143388143Y-93558644D01*
X143295244Y-93740968D01*
X143232009Y-93935582D01*
X143200000Y-94137682D01*
X108270311Y-94137682D01*
X108270285Y-94133625D01*
X108264249Y-93208592D01*
X108250503Y-91102084D01*
X108250500Y-91101275D01*
X108250500Y-90630247D01*
X128049500Y-90630247D01*
X128049500Y-92469752D01*
X128061131Y-92528229D01*
X128061132Y-92528230D01*
X128105447Y-92594552D01*
X128171769Y-92638867D01*
X128171770Y-92638868D01*
X128230247Y-92650499D01*
X128230250Y-92650500D01*
X128230252Y-92650500D01*
X130069750Y-92650500D01*
X130069751Y-92650499D01*
X130084568Y-92647552D01*
X130128229Y-92638868D01*
X130128229Y-92638867D01*
X130128231Y-92638867D01*
X130194552Y-92594552D01*
X130238867Y-92528231D01*
X130238867Y-92528229D01*
X130238868Y-92528229D01*
X130250499Y-92469752D01*
X130250500Y-92469750D01*
X130250500Y-91974500D01*
X130270185Y-91907461D01*
X130322989Y-91861706D01*
X130374500Y-91850500D01*
X130391260Y-91850500D01*
X130391262Y-91850500D01*
X130467689Y-91830021D01*
X130536211Y-91790460D01*
X130592160Y-91734511D01*
X132678127Y-89648543D01*
X139449499Y-89648543D01*
X139487947Y-89841829D01*
X139487950Y-89841839D01*
X139563364Y-90023907D01*
X139563371Y-90023920D01*
X139672860Y-90187781D01*
X139672863Y-90187785D01*
X139812214Y-90327136D01*
X139812218Y-90327139D01*
X139976079Y-90436628D01*
X139976092Y-90436635D01*
X140114267Y-90493868D01*
X140158165Y-90512051D01*
X140158169Y-90512051D01*
X140158170Y-90512052D01*
X140351456Y-90550500D01*
X140351459Y-90550500D01*
X140548543Y-90550500D01*
X140678582Y-90524632D01*
X140741835Y-90512051D01*
X140785733Y-90493868D01*
X140849021Y-90467654D01*
X140923907Y-90436635D01*
X140923907Y-90436634D01*
X140923914Y-90436632D01*
X141087782Y-90327139D01*
X141227139Y-90187782D01*
X141336632Y-90023914D01*
X141342586Y-90009541D01*
X141399652Y-89871769D01*
X141412051Y-89841835D01*
X141430418Y-89749500D01*
X141450500Y-89648543D01*
X141450500Y-89451458D01*
X141450499Y-89451455D01*
X141449748Y-89447682D01*
X146770000Y-89447682D01*
X146770000Y-89652317D01*
X146802009Y-89854417D01*
X146865244Y-90049031D01*
X146958141Y-90231350D01*
X146958147Y-90231359D01*
X146990523Y-90275921D01*
X146990524Y-90275922D01*
X147670000Y-89596446D01*
X147670000Y-89602661D01*
X147697259Y-89704394D01*
X147749920Y-89795606D01*
X147824394Y-89870080D01*
X147915606Y-89922741D01*
X148017339Y-89950000D01*
X148023553Y-89950000D01*
X147344076Y-90629474D01*
X147388650Y-90661859D01*
X147570968Y-90754755D01*
X147765582Y-90817990D01*
X147967683Y-90850000D01*
X148172317Y-90850000D01*
X148374417Y-90817990D01*
X148569031Y-90754755D01*
X148751349Y-90661859D01*
X148795921Y-90629474D01*
X148795922Y-90629474D01*
X148764292Y-90597844D01*
X151000000Y-90597844D01*
X151006401Y-90657372D01*
X151006403Y-90657379D01*
X151056645Y-90792086D01*
X151056649Y-90792093D01*
X151142809Y-90907187D01*
X151142812Y-90907190D01*
X151257906Y-90993350D01*
X151257913Y-90993354D01*
X151392620Y-91043596D01*
X151392627Y-91043598D01*
X151452155Y-91049999D01*
X151452172Y-91050000D01*
X151950000Y-91050000D01*
X151950000Y-90500000D01*
X151000000Y-90500000D01*
X151000000Y-90597844D01*
X148764292Y-90597844D01*
X148702767Y-90536319D01*
X148116447Y-89950000D01*
X148122661Y-89950000D01*
X148224394Y-89922741D01*
X148315606Y-89870080D01*
X148390080Y-89795606D01*
X148442741Y-89704394D01*
X148470000Y-89602661D01*
X148470000Y-89596447D01*
X149149474Y-90275921D01*
X149181859Y-90231349D01*
X149274755Y-90049031D01*
X149337990Y-89854417D01*
X149370000Y-89652317D01*
X149370000Y-89447682D01*
X149337990Y-89245582D01*
X149274755Y-89050968D01*
X149181859Y-88868650D01*
X149149474Y-88824077D01*
X149149474Y-88824076D01*
X148470000Y-89503551D01*
X148470000Y-89497339D01*
X148442741Y-89395606D01*
X148390080Y-89304394D01*
X148315606Y-89229920D01*
X148224394Y-89177259D01*
X148122661Y-89150000D01*
X148116446Y-89150000D01*
X148795922Y-88470524D01*
X148795921Y-88470523D01*
X148751359Y-88438147D01*
X148751350Y-88438141D01*
X148569031Y-88345244D01*
X148374417Y-88282009D01*
X148172317Y-88250000D01*
X147967683Y-88250000D01*
X147765582Y-88282009D01*
X147570968Y-88345244D01*
X147388644Y-88438143D01*
X147344077Y-88470523D01*
X147344077Y-88470524D01*
X148023554Y-89150000D01*
X148017339Y-89150000D01*
X147915606Y-89177259D01*
X147824394Y-89229920D01*
X147749920Y-89304394D01*
X147697259Y-89395606D01*
X147670000Y-89497339D01*
X147670000Y-89503553D01*
X146990524Y-88824077D01*
X146990523Y-88824077D01*
X146958143Y-88868644D01*
X146865244Y-89050968D01*
X146802009Y-89245582D01*
X146770000Y-89447682D01*
X141449748Y-89447682D01*
X141412051Y-89258165D01*
X141400352Y-89229920D01*
X141336635Y-89076092D01*
X141336628Y-89076079D01*
X141227139Y-88912218D01*
X141227136Y-88912214D01*
X141087785Y-88772863D01*
X141087781Y-88772860D01*
X140923920Y-88663371D01*
X140923907Y-88663364D01*
X140849016Y-88632344D01*
X140741839Y-88587950D01*
X140741829Y-88587947D01*
X140548543Y-88549500D01*
X140548541Y-88549500D01*
X140351459Y-88549500D01*
X140351457Y-88549500D01*
X140158170Y-88587947D01*
X140158160Y-88587950D01*
X139976092Y-88663364D01*
X139976079Y-88663371D01*
X139812218Y-88772860D01*
X139812214Y-88772863D01*
X139672863Y-88912214D01*
X139672860Y-88912218D01*
X139563371Y-89076079D01*
X139563364Y-89076092D01*
X139487950Y-89258160D01*
X139487947Y-89258170D01*
X139449500Y-89451456D01*
X139449500Y-89451458D01*
X139449500Y-89451459D01*
X139449500Y-89648541D01*
X139449500Y-89648543D01*
X139449499Y-89648543D01*
X132678127Y-89648543D01*
X134398127Y-87928543D01*
X136449499Y-87928543D01*
X136487947Y-88121829D01*
X136487950Y-88121839D01*
X136563364Y-88303907D01*
X136563371Y-88303920D01*
X136672860Y-88467781D01*
X136672863Y-88467785D01*
X136812214Y-88607136D01*
X136812218Y-88607139D01*
X136976079Y-88716628D01*
X136976092Y-88716635D01*
X137122695Y-88777359D01*
X137158165Y-88792051D01*
X137158169Y-88792051D01*
X137158170Y-88792052D01*
X137351456Y-88830500D01*
X137351459Y-88830500D01*
X137548543Y-88830500D01*
X137678582Y-88804632D01*
X137741835Y-88792051D01*
X137882655Y-88733721D01*
X137923907Y-88716635D01*
X137923907Y-88716634D01*
X137923914Y-88716632D01*
X138087782Y-88607139D01*
X138227139Y-88467782D01*
X138336632Y-88303914D01*
X138338965Y-88298283D01*
X138377562Y-88205100D01*
X138412051Y-88121835D01*
X138435964Y-88001619D01*
X138450500Y-87928543D01*
X138450500Y-87731456D01*
X138412052Y-87538170D01*
X138412051Y-87538169D01*
X138412051Y-87538165D01*
X138412049Y-87538160D01*
X138336635Y-87356092D01*
X138336628Y-87356079D01*
X138227139Y-87192218D01*
X138227136Y-87192214D01*
X138087785Y-87052863D01*
X138087781Y-87052860D01*
X137923920Y-86943371D01*
X137923907Y-86943364D01*
X137741839Y-86867950D01*
X137741829Y-86867947D01*
X137548543Y-86829500D01*
X137548541Y-86829500D01*
X137351459Y-86829500D01*
X137351457Y-86829500D01*
X137158170Y-86867947D01*
X137158160Y-86867950D01*
X136976092Y-86943364D01*
X136976079Y-86943371D01*
X136812218Y-87052860D01*
X136812214Y-87052863D01*
X136672863Y-87192214D01*
X136672860Y-87192218D01*
X136563371Y-87356079D01*
X136563364Y-87356092D01*
X136487950Y-87538160D01*
X136487947Y-87538170D01*
X136449500Y-87731456D01*
X136449500Y-87731459D01*
X136449500Y-87928541D01*
X136449500Y-87928543D01*
X136449499Y-87928543D01*
X134398127Y-87928543D01*
X136443395Y-85883275D01*
X136504716Y-85849792D01*
X136574408Y-85854776D01*
X136609738Y-85875104D01*
X136612218Y-85877139D01*
X136776079Y-85986628D01*
X136776092Y-85986635D01*
X136869922Y-86025500D01*
X136958165Y-86062051D01*
X136958169Y-86062051D01*
X136958170Y-86062052D01*
X137151456Y-86100500D01*
X137151459Y-86100500D01*
X137348543Y-86100500D01*
X137478582Y-86074632D01*
X137541835Y-86062051D01*
X137715945Y-85989933D01*
X137723907Y-85986635D01*
X137723907Y-85986634D01*
X137723914Y-85986632D01*
X137887782Y-85877139D01*
X138027139Y-85737782D01*
X138136632Y-85573914D01*
X138141975Y-85561016D01*
X138212049Y-85391839D01*
X138212051Y-85391835D01*
X138227424Y-85314552D01*
X138250500Y-85198543D01*
X138250500Y-85001456D01*
X138212052Y-84808170D01*
X138212051Y-84808169D01*
X138212051Y-84808165D01*
X138189197Y-84752989D01*
X138136635Y-84626092D01*
X138136628Y-84626079D01*
X138027139Y-84462218D01*
X138027136Y-84462214D01*
X137887785Y-84322863D01*
X137887781Y-84322860D01*
X137723920Y-84213371D01*
X137723907Y-84213364D01*
X137541839Y-84137950D01*
X137541829Y-84137947D01*
X137348543Y-84099500D01*
X137348541Y-84099500D01*
X137151459Y-84099500D01*
X137151457Y-84099500D01*
X136958170Y-84137947D01*
X136958160Y-84137950D01*
X136776092Y-84213364D01*
X136776079Y-84213371D01*
X136612218Y-84322860D01*
X136612214Y-84322863D01*
X136472863Y-84462214D01*
X136472860Y-84462218D01*
X136363371Y-84626079D01*
X136363364Y-84626092D01*
X136287950Y-84808160D01*
X136287947Y-84808170D01*
X136249500Y-85001456D01*
X136249500Y-85175866D01*
X136229815Y-85242905D01*
X136213181Y-85263547D01*
X130462181Y-91014547D01*
X130400858Y-91048032D01*
X130331166Y-91043048D01*
X130275233Y-91001176D01*
X130250816Y-90935712D01*
X130250500Y-90926866D01*
X130250500Y-90630249D01*
X130250499Y-90630247D01*
X130238868Y-90571770D01*
X130238867Y-90571769D01*
X130194552Y-90505447D01*
X130128230Y-90461132D01*
X130128229Y-90461131D01*
X130069752Y-90449500D01*
X130069748Y-90449500D01*
X128230252Y-90449500D01*
X128230247Y-90449500D01*
X128171770Y-90461131D01*
X128171769Y-90461132D01*
X128105447Y-90505447D01*
X128061132Y-90571769D01*
X128061131Y-90571770D01*
X128049500Y-90630247D01*
X108250500Y-90630247D01*
X108250500Y-88923389D01*
X128049500Y-88923389D01*
X128049500Y-89096611D01*
X128050940Y-89105700D01*
X128075087Y-89258165D01*
X128076598Y-89267701D01*
X128126143Y-89420185D01*
X128130128Y-89432447D01*
X128139815Y-89451458D01*
X128208768Y-89586788D01*
X128310586Y-89726928D01*
X128433072Y-89849414D01*
X128573212Y-89951232D01*
X128727555Y-90029873D01*
X128892299Y-90083402D01*
X129063389Y-90110500D01*
X129063390Y-90110500D01*
X129236610Y-90110500D01*
X129236611Y-90110500D01*
X129407701Y-90083402D01*
X129572445Y-90029873D01*
X129726788Y-89951232D01*
X129866928Y-89849414D01*
X129989414Y-89726928D01*
X130091232Y-89586788D01*
X130169873Y-89432445D01*
X130223402Y-89267701D01*
X130250500Y-89096611D01*
X130250500Y-88923389D01*
X130223402Y-88752299D01*
X130169873Y-88587555D01*
X130091232Y-88433212D01*
X129989414Y-88293072D01*
X129866928Y-88170586D01*
X129726788Y-88068768D01*
X129572445Y-87990127D01*
X129407701Y-87936598D01*
X129407699Y-87936597D01*
X129407698Y-87936597D01*
X129251063Y-87911789D01*
X129236611Y-87909500D01*
X129063389Y-87909500D01*
X129048937Y-87911789D01*
X128892302Y-87936597D01*
X128727552Y-87990128D01*
X128573211Y-88068768D01*
X128500180Y-88121829D01*
X128433072Y-88170586D01*
X128433070Y-88170588D01*
X128433069Y-88170588D01*
X128310588Y-88293069D01*
X128310588Y-88293070D01*
X128310586Y-88293072D01*
X128268075Y-88351583D01*
X128208768Y-88433211D01*
X128130128Y-88587552D01*
X128076597Y-88752302D01*
X128059048Y-88863104D01*
X128049500Y-88923389D01*
X108250500Y-88923389D01*
X108250500Y-79021153D01*
X111449500Y-79021153D01*
X111449500Y-80319752D01*
X111461131Y-80378229D01*
X111461132Y-80378230D01*
X111505447Y-80444552D01*
X111571769Y-80488867D01*
X111571770Y-80488868D01*
X111609757Y-80496424D01*
X111671668Y-80528809D01*
X111706242Y-80589524D01*
X111702503Y-80659294D01*
X111661637Y-80715966D01*
X111659200Y-80717811D01*
X111577850Y-80777850D01*
X111497207Y-80887117D01*
X111497206Y-80887119D01*
X111452353Y-81015298D01*
X111452353Y-81015300D01*
X111449500Y-81045730D01*
X111449500Y-82154269D01*
X111452353Y-82184699D01*
X111452353Y-82184701D01*
X111497206Y-82312880D01*
X111497207Y-82312882D01*
X111577850Y-82422150D01*
X111667795Y-82488532D01*
X111683645Y-82500230D01*
X111725895Y-82555878D01*
X111731354Y-82625534D01*
X111698286Y-82687083D01*
X111683645Y-82699770D01*
X111577850Y-82777850D01*
X111497207Y-82887117D01*
X111497206Y-82887119D01*
X111452353Y-83015298D01*
X111452353Y-83015300D01*
X111449500Y-83045730D01*
X111449500Y-84154269D01*
X111452353Y-84184699D01*
X111452353Y-84184701D01*
X111493604Y-84302585D01*
X111497207Y-84312882D01*
X111547566Y-84381117D01*
X111577851Y-84422151D01*
X111659199Y-84482188D01*
X111701450Y-84537835D01*
X111706909Y-84607491D01*
X111673842Y-84669041D01*
X111612748Y-84702942D01*
X111609759Y-84703575D01*
X111571770Y-84711132D01*
X111571769Y-84711132D01*
X111505447Y-84755447D01*
X111461132Y-84821769D01*
X111461131Y-84821770D01*
X111449500Y-84880247D01*
X111449500Y-86178846D01*
X111480261Y-86333489D01*
X111480264Y-86333501D01*
X111540602Y-86479172D01*
X111540609Y-86479185D01*
X111628210Y-86610288D01*
X111628213Y-86610292D01*
X111739707Y-86721786D01*
X111739711Y-86721789D01*
X111870814Y-86809390D01*
X111870827Y-86809397D01*
X112012186Y-86867949D01*
X112016503Y-86869737D01*
X112171153Y-86900499D01*
X112171156Y-86900500D01*
X112171158Y-86900500D01*
X113028844Y-86900500D01*
X113028845Y-86900499D01*
X113183497Y-86869737D01*
X113329179Y-86809394D01*
X113460289Y-86721789D01*
X113571789Y-86610289D01*
X113659394Y-86479179D01*
X113719737Y-86333497D01*
X113750500Y-86178842D01*
X113750500Y-86021158D01*
X113750500Y-84880252D01*
X113750500Y-84880249D01*
X113750499Y-84880247D01*
X113738868Y-84821770D01*
X113738867Y-84821769D01*
X113694552Y-84755447D01*
X113628230Y-84711132D01*
X113590240Y-84703575D01*
X113528329Y-84671189D01*
X113493756Y-84610473D01*
X113497497Y-84540703D01*
X113538364Y-84484032D01*
X113540712Y-84482253D01*
X113622150Y-84422150D01*
X113702793Y-84312882D01*
X113725219Y-84248790D01*
X113747646Y-84184701D01*
X113747646Y-84184699D01*
X113750500Y-84154269D01*
X113750500Y-84100001D01*
X114132988Y-84100001D01*
X114140442Y-84156627D01*
X114140444Y-84156633D01*
X114200899Y-84302585D01*
X114297075Y-84427924D01*
X114428859Y-84529046D01*
X114427711Y-84530541D01*
X114468754Y-84573581D01*
X114481980Y-84642187D01*
X114473102Y-84677858D01*
X114410068Y-84830037D01*
X114410065Y-84830047D01*
X114374500Y-85008843D01*
X114374500Y-85008846D01*
X114374500Y-85191154D01*
X114374500Y-85191156D01*
X114374499Y-85191156D01*
X114410065Y-85369952D01*
X114410068Y-85369962D01*
X114479831Y-85538387D01*
X114479833Y-85538391D01*
X114581113Y-85689967D01*
X114581119Y-85689975D01*
X114710024Y-85818880D01*
X114710032Y-85818886D01*
X114861608Y-85920166D01*
X114861612Y-85920168D01*
X115022080Y-85986635D01*
X115030042Y-85989933D01*
X115030046Y-85989933D01*
X115030047Y-85989934D01*
X115208843Y-86025500D01*
X115208846Y-86025500D01*
X115391156Y-86025500D01*
X115511445Y-86001572D01*
X115569958Y-85989933D01*
X115738389Y-85920167D01*
X115738391Y-85920166D01*
X115843713Y-85849792D01*
X115889972Y-85818883D01*
X116018883Y-85689972D01*
X116120167Y-85538389D01*
X116189933Y-85369958D01*
X116211100Y-85263547D01*
X116225500Y-85191156D01*
X116225500Y-85008843D01*
X116189934Y-84830047D01*
X116189933Y-84830046D01*
X116189933Y-84830042D01*
X116161404Y-84761166D01*
X116126897Y-84677858D01*
X116119428Y-84608389D01*
X116150703Y-84545910D01*
X116171424Y-84529417D01*
X116171140Y-84529047D01*
X116302924Y-84427924D01*
X116399100Y-84302586D01*
X116459555Y-84156631D01*
X116467012Y-84100000D01*
X114132990Y-84100000D01*
X114132988Y-84100001D01*
X113750500Y-84100001D01*
X113750500Y-83700000D01*
X114132987Y-83700000D01*
X116467010Y-83700000D01*
X116467011Y-83699998D01*
X116459557Y-83643372D01*
X116459556Y-83643369D01*
X116412460Y-83529668D01*
X116412459Y-83529666D01*
X116399100Y-83497413D01*
X116302922Y-83372073D01*
X116224012Y-83311522D01*
X116182810Y-83255094D01*
X116175499Y-83213147D01*
X116175499Y-83105143D01*
X116175499Y-83105136D01*
X116174122Y-83093260D01*
X116172586Y-83080012D01*
X116172585Y-83080008D01*
X116126257Y-82975086D01*
X116117185Y-82905808D01*
X116126257Y-82874913D01*
X116127204Y-82872766D01*
X116127206Y-82872765D01*
X116172585Y-82769991D01*
X116175500Y-82744865D01*
X116175499Y-82455136D01*
X116175497Y-82455117D01*
X116172586Y-82430012D01*
X116172585Y-82430008D01*
X116129488Y-82332403D01*
X116127206Y-82327235D01*
X116127205Y-82327234D01*
X116126257Y-82325086D01*
X116117185Y-82255808D01*
X116126257Y-82224913D01*
X116127204Y-82222766D01*
X116127206Y-82222765D01*
X116172585Y-82119991D01*
X116175500Y-82094865D01*
X116175499Y-81805136D01*
X116175497Y-81805117D01*
X116172586Y-81780012D01*
X116172585Y-81780010D01*
X116170190Y-81774585D01*
X116161119Y-81705307D01*
X116190943Y-81642122D01*
X116250193Y-81605092D01*
X116283625Y-81600500D01*
X118521468Y-81600500D01*
X118588507Y-81620185D01*
X118634262Y-81672989D01*
X118644206Y-81742147D01*
X118631953Y-81780795D01*
X118545244Y-81950968D01*
X118482009Y-82145582D01*
X118450000Y-82347682D01*
X118450000Y-82552317D01*
X118482009Y-82754417D01*
X118545244Y-82949031D01*
X118638141Y-83131350D01*
X118638147Y-83131359D01*
X118670523Y-83175921D01*
X118670524Y-83175922D01*
X119350000Y-82496446D01*
X119350000Y-82502661D01*
X119377259Y-82604394D01*
X119429920Y-82695606D01*
X119504394Y-82770080D01*
X119595606Y-82822741D01*
X119697339Y-82850000D01*
X119703553Y-82850000D01*
X119024076Y-83529474D01*
X119068650Y-83561859D01*
X119250968Y-83654755D01*
X119445582Y-83717990D01*
X119647683Y-83750000D01*
X119852317Y-83750000D01*
X120054417Y-83717990D01*
X120249031Y-83654755D01*
X120431349Y-83561859D01*
X120475921Y-83529474D01*
X119796447Y-82850000D01*
X119802661Y-82850000D01*
X119904394Y-82822741D01*
X119995606Y-82770080D01*
X120070080Y-82695606D01*
X120122741Y-82604394D01*
X120150000Y-82502661D01*
X120150000Y-82496447D01*
X120739931Y-83086378D01*
X120769291Y-83133104D01*
X120797206Y-83212880D01*
X120797207Y-83212882D01*
X120877850Y-83322150D01*
X120987118Y-83402793D01*
X121029845Y-83417744D01*
X121115299Y-83447646D01*
X121145730Y-83450500D01*
X121145734Y-83450500D01*
X122354270Y-83450500D01*
X122384699Y-83447646D01*
X122384701Y-83447646D01*
X122448790Y-83425219D01*
X122512882Y-83402793D01*
X122584080Y-83350247D01*
X127949500Y-83350247D01*
X127949500Y-85189752D01*
X127961131Y-85248229D01*
X127961132Y-85248230D01*
X128005447Y-85314552D01*
X128071769Y-85358867D01*
X128071770Y-85358868D01*
X128130247Y-85370499D01*
X128130250Y-85370500D01*
X128130252Y-85370500D01*
X129969750Y-85370500D01*
X129969751Y-85370499D01*
X129984568Y-85367552D01*
X130028229Y-85358868D01*
X130028229Y-85358867D01*
X130028231Y-85358867D01*
X130094552Y-85314552D01*
X130138867Y-85248231D01*
X130138867Y-85248229D01*
X130138868Y-85248229D01*
X130147829Y-85203175D01*
X130150500Y-85189748D01*
X130150500Y-83350252D01*
X130150500Y-83350249D01*
X130150499Y-83350247D01*
X130138868Y-83291770D01*
X130138867Y-83291769D01*
X130094552Y-83225447D01*
X130028230Y-83181132D01*
X130028229Y-83181131D01*
X129969752Y-83169500D01*
X129969748Y-83169500D01*
X128130252Y-83169500D01*
X128130247Y-83169500D01*
X128071770Y-83181131D01*
X128071769Y-83181132D01*
X128005447Y-83225447D01*
X127961132Y-83291769D01*
X127961131Y-83291770D01*
X127949500Y-83350247D01*
X122584080Y-83350247D01*
X122622150Y-83322150D01*
X122702793Y-83212882D01*
X122725219Y-83148790D01*
X122747646Y-83084701D01*
X122747646Y-83084699D01*
X122750500Y-83054269D01*
X122750500Y-82697400D01*
X122770185Y-82630361D01*
X122822989Y-82584606D01*
X122874500Y-82573400D01*
X123058560Y-82573400D01*
X123058562Y-82573400D01*
X123134989Y-82552921D01*
X123203511Y-82513360D01*
X123259460Y-82457411D01*
X123494860Y-82222011D01*
X123507856Y-82199501D01*
X123534421Y-82153489D01*
X123545231Y-82113144D01*
X123549104Y-82104381D01*
X123565718Y-82084723D01*
X123579114Y-82062746D01*
X123587899Y-82058478D01*
X123594205Y-82051018D01*
X123618810Y-82043462D01*
X123641961Y-82032217D01*
X123660466Y-82030671D01*
X123660997Y-82030509D01*
X123661322Y-82030600D01*
X123662524Y-82030500D01*
X127900413Y-82030500D01*
X127967452Y-82050185D01*
X128013207Y-82102989D01*
X128018343Y-82116180D01*
X128030126Y-82152445D01*
X128103849Y-82297133D01*
X128108768Y-82306788D01*
X128210586Y-82446928D01*
X128333072Y-82569414D01*
X128473212Y-82671232D01*
X128627555Y-82749873D01*
X128792299Y-82803402D01*
X128963389Y-82830500D01*
X128963390Y-82830500D01*
X129136610Y-82830500D01*
X129136611Y-82830500D01*
X129307701Y-82803402D01*
X129472445Y-82749873D01*
X129626788Y-82671232D01*
X129766928Y-82569414D01*
X129889414Y-82446928D01*
X129991232Y-82306788D01*
X130069873Y-82152445D01*
X130123402Y-81987701D01*
X130150500Y-81816611D01*
X130150500Y-81643389D01*
X130123402Y-81472299D01*
X130069873Y-81307555D01*
X130052561Y-81273579D01*
X130039665Y-81204912D01*
X130065941Y-81140171D01*
X130075356Y-81129613D01*
X131142152Y-80062819D01*
X131203475Y-80029334D01*
X131229833Y-80026500D01*
X139675921Y-80026500D01*
X139742960Y-80046185D01*
X139788715Y-80098989D01*
X139789999Y-80106255D01*
X139802705Y-80120000D01*
X142747295Y-80120000D01*
X142762330Y-80103735D01*
X142764828Y-80091847D01*
X142813881Y-80042093D01*
X142874079Y-80026500D01*
X144929471Y-80026500D01*
X144939734Y-80029513D01*
X144950360Y-80028272D01*
X144972677Y-80039186D01*
X144996510Y-80046185D01*
X145003514Y-80054268D01*
X145013125Y-80058969D01*
X145025998Y-80080216D01*
X145042265Y-80098989D01*
X145044743Y-80111154D01*
X145049331Y-80118726D01*
X145050522Y-80139520D01*
X145053428Y-80153782D01*
X145053233Y-80161112D01*
X145049500Y-80186740D01*
X145049500Y-80302157D01*
X145049457Y-80303782D01*
X145039205Y-80335557D01*
X145029815Y-80367539D01*
X145028528Y-80368653D01*
X145028005Y-80370277D01*
X145002203Y-80391464D01*
X144977011Y-80413294D01*
X144975119Y-80413705D01*
X144974008Y-80414618D01*
X144967346Y-80415396D01*
X144925500Y-80424500D01*
X142525247Y-80424500D01*
X142466770Y-80436131D01*
X142466769Y-80436132D01*
X142400447Y-80480447D01*
X142349348Y-80556923D01*
X142347595Y-80555752D01*
X142313659Y-80597860D01*
X142247364Y-80619921D01*
X142242945Y-80620000D01*
X139802705Y-80620000D01*
X139802704Y-80620001D01*
X139802899Y-80622486D01*
X139848718Y-80780198D01*
X139932314Y-80921552D01*
X139932321Y-80921561D01*
X140048438Y-81037678D01*
X140048446Y-81037684D01*
X140135925Y-81089419D01*
X140148420Y-81102801D01*
X140164106Y-81112247D01*
X140171769Y-81127809D01*
X140183608Y-81140488D01*
X140186884Y-81158501D01*
X140194974Y-81174928D01*
X140193007Y-81192163D01*
X140196112Y-81209230D01*
X140189129Y-81226155D01*
X140187054Y-81244348D01*
X140173020Y-81265205D01*
X140169467Y-81273819D01*
X140168848Y-81274583D01*
X140164893Y-81279425D01*
X140160802Y-81283517D01*
X140159683Y-81285805D01*
X140153047Y-81293932D01*
X140127404Y-81311489D01*
X140102949Y-81330674D01*
X140097998Y-81331624D01*
X140095396Y-81333407D01*
X140087525Y-81333636D01*
X140057003Y-81339500D01*
X139827938Y-81339500D01*
X139789724Y-81349739D01*
X139751509Y-81359979D01*
X139751508Y-81359980D01*
X139693989Y-81393188D01*
X139693989Y-81393189D01*
X139682989Y-81399540D01*
X139682986Y-81399542D01*
X139389847Y-81692681D01*
X139328524Y-81726166D01*
X139302166Y-81729000D01*
X139212108Y-81729000D01*
X139084812Y-81763108D01*
X138970686Y-81829000D01*
X138970683Y-81829002D01*
X138877502Y-81922183D01*
X138877500Y-81922186D01*
X138811608Y-82036312D01*
X138785813Y-82132582D01*
X138777500Y-82163608D01*
X138777500Y-82295392D01*
X138786032Y-82327235D01*
X138811608Y-82422687D01*
X138839388Y-82470802D01*
X138877500Y-82536814D01*
X138970686Y-82630000D01*
X139042100Y-82671231D01*
X139084318Y-82695606D01*
X139084814Y-82695892D01*
X139212108Y-82730000D01*
X139212110Y-82730000D01*
X139343890Y-82730000D01*
X139343892Y-82730000D01*
X139471186Y-82695892D01*
X139585314Y-82630000D01*
X139592675Y-82622638D01*
X139653993Y-82589154D01*
X139723685Y-82594136D01*
X139771412Y-82626148D01*
X139802704Y-82660000D01*
X141151000Y-82660000D01*
X141218039Y-82679685D01*
X141263794Y-82732489D01*
X141275000Y-82784000D01*
X141275000Y-83036000D01*
X141255315Y-83103039D01*
X141202511Y-83148794D01*
X141151000Y-83160000D01*
X139802705Y-83160000D01*
X139802704Y-83160001D01*
X139802899Y-83162486D01*
X139848718Y-83320198D01*
X139932314Y-83461552D01*
X139932321Y-83461561D01*
X140048438Y-83577678D01*
X140048446Y-83577684D01*
X140135925Y-83629419D01*
X140183608Y-83680488D01*
X140196112Y-83749230D01*
X140169467Y-83813819D01*
X140160927Y-83823340D01*
X140160804Y-83823513D01*
X140109426Y-83928608D01*
X140099500Y-83996739D01*
X140099500Y-84363260D01*
X140109426Y-84431391D01*
X140160803Y-84536485D01*
X140243514Y-84619196D01*
X140243515Y-84619196D01*
X140243517Y-84619198D01*
X140348607Y-84670573D01*
X140382673Y-84675536D01*
X140416739Y-84680500D01*
X140416740Y-84680500D01*
X140850500Y-84680500D01*
X140917539Y-84700185D01*
X140963294Y-84752989D01*
X140971984Y-84779650D01*
X140974500Y-84791949D01*
X140974500Y-84886262D01*
X140994979Y-84962689D01*
X141007290Y-84984012D01*
X141017352Y-85001441D01*
X141017353Y-85001442D01*
X141034537Y-85031207D01*
X141034541Y-85031212D01*
X141145181Y-85141852D01*
X141178666Y-85203175D01*
X141181500Y-85229533D01*
X141181500Y-85319592D01*
X141195140Y-85370499D01*
X141215608Y-85446887D01*
X141248554Y-85503950D01*
X141281500Y-85561014D01*
X141374686Y-85654200D01*
X141488814Y-85720092D01*
X141616108Y-85754200D01*
X141616110Y-85754200D01*
X141747890Y-85754200D01*
X141747892Y-85754200D01*
X141875186Y-85720092D01*
X141989314Y-85654200D01*
X142082500Y-85561014D01*
X142148392Y-85446886D01*
X142182500Y-85319592D01*
X142182500Y-85187808D01*
X142148392Y-85060514D01*
X142082500Y-84946386D01*
X142028295Y-84892181D01*
X141994810Y-84830858D01*
X141999794Y-84761166D01*
X142041666Y-84705233D01*
X142107130Y-84680816D01*
X142115976Y-84680500D01*
X142133261Y-84680500D01*
X142155971Y-84677191D01*
X142201393Y-84670573D01*
X142306483Y-84619198D01*
X142389198Y-84536483D01*
X142440573Y-84431393D01*
X142450500Y-84363260D01*
X142450500Y-84249500D01*
X142470185Y-84182461D01*
X142522989Y-84136706D01*
X142574500Y-84125500D01*
X144925500Y-84125500D01*
X144992539Y-84145185D01*
X145038294Y-84197989D01*
X145049500Y-84249500D01*
X145049500Y-84363260D01*
X145059426Y-84431391D01*
X145110803Y-84536485D01*
X145193514Y-84619196D01*
X145193515Y-84619196D01*
X145193517Y-84619198D01*
X145298607Y-84670573D01*
X145332673Y-84675536D01*
X145366739Y-84680500D01*
X145366740Y-84680500D01*
X147083261Y-84680500D01*
X147105971Y-84677191D01*
X147151393Y-84670573D01*
X147256483Y-84619198D01*
X147339198Y-84536483D01*
X147339200Y-84536477D01*
X147342077Y-84532450D01*
X147397051Y-84489326D01*
X147442997Y-84480500D01*
X165117567Y-84480500D01*
X165184606Y-84500185D01*
X165205248Y-84516819D01*
X167676248Y-86987819D01*
X167709733Y-87049142D01*
X167704749Y-87118834D01*
X167662877Y-87174767D01*
X167597413Y-87199184D01*
X167588567Y-87199500D01*
X167551578Y-87199500D01*
X167357173Y-87230290D01*
X167169967Y-87291118D01*
X167082054Y-87335912D01*
X167013384Y-87348808D01*
X166948644Y-87322531D01*
X166938079Y-87313108D01*
X166923312Y-87298341D01*
X166923304Y-87298335D01*
X166854795Y-87258782D01*
X166854790Y-87258779D01*
X166829313Y-87251952D01*
X166778362Y-87238300D01*
X166778360Y-87238300D01*
X160777533Y-87238300D01*
X160710494Y-87218615D01*
X160705784Y-87215434D01*
X160697251Y-87209380D01*
X160682811Y-87194940D01*
X160656068Y-87179500D01*
X160651050Y-87176603D01*
X160651046Y-87176600D01*
X160614291Y-87155380D01*
X160614290Y-87155379D01*
X160588813Y-87148552D01*
X160537862Y-87134900D01*
X153926338Y-87134900D01*
X153888124Y-87145139D01*
X153849909Y-87155379D01*
X153849908Y-87155380D01*
X153816330Y-87174767D01*
X153808132Y-87179500D01*
X153800186Y-87184087D01*
X153781389Y-87194939D01*
X153781387Y-87194941D01*
X153132293Y-87844034D01*
X153070970Y-87877519D01*
X153001278Y-87872535D01*
X152982248Y-87862796D01*
X152978229Y-87861131D01*
X152919752Y-87849500D01*
X152919748Y-87849500D01*
X151480252Y-87849500D01*
X151480247Y-87849500D01*
X151421770Y-87861131D01*
X151421769Y-87861132D01*
X151355447Y-87905447D01*
X151311132Y-87971769D01*
X151311131Y-87971770D01*
X151299500Y-88030247D01*
X151299500Y-88669752D01*
X151311131Y-88728229D01*
X151311133Y-88728233D01*
X151329760Y-88756110D01*
X151350638Y-88822787D01*
X151332153Y-88890167D01*
X151329760Y-88893890D01*
X151311133Y-88921766D01*
X151311131Y-88921770D01*
X151299500Y-88980247D01*
X151299500Y-89413443D01*
X151279815Y-89480482D01*
X151249812Y-89512709D01*
X151142809Y-89592812D01*
X151056649Y-89707906D01*
X151056645Y-89707913D01*
X151006403Y-89842620D01*
X151006401Y-89842627D01*
X151000000Y-89902155D01*
X151000000Y-90000000D01*
X152076000Y-90000000D01*
X152143039Y-90019685D01*
X152188794Y-90072489D01*
X152200000Y-90124000D01*
X152200000Y-90250000D01*
X152326000Y-90250000D01*
X152393039Y-90269685D01*
X152438794Y-90322489D01*
X152450000Y-90374000D01*
X152450000Y-91050000D01*
X152947828Y-91050000D01*
X152947844Y-91049999D01*
X153007372Y-91043598D01*
X153007379Y-91043596D01*
X153142086Y-90993354D01*
X153142093Y-90993350D01*
X153257187Y-90907190D01*
X153257190Y-90907187D01*
X153343350Y-90792093D01*
X153343354Y-90792086D01*
X153393830Y-90656754D01*
X153435701Y-90600820D01*
X153501165Y-90576403D01*
X153569438Y-90591255D01*
X153613114Y-90631196D01*
X153655447Y-90694552D01*
X153721769Y-90738867D01*
X153721770Y-90738868D01*
X153780247Y-90750499D01*
X153780250Y-90750500D01*
X153780252Y-90750500D01*
X155219750Y-90750500D01*
X155219751Y-90750499D01*
X155234568Y-90747552D01*
X155278229Y-90738868D01*
X155278229Y-90738867D01*
X155278231Y-90738867D01*
X155344552Y-90694552D01*
X155344553Y-90694551D01*
X155345236Y-90693869D01*
X155347089Y-90692856D01*
X155354707Y-90687767D01*
X155355162Y-90688448D01*
X155406559Y-90660384D01*
X155476251Y-90665368D01*
X155520598Y-90693869D01*
X155718889Y-90892160D01*
X155778229Y-90926420D01*
X155787408Y-90931720D01*
X155787412Y-90931722D01*
X155863838Y-90952200D01*
X155863840Y-90952200D01*
X160736160Y-90952200D01*
X160736162Y-90952200D01*
X160812589Y-90931721D01*
X160881111Y-90892160D01*
X160937060Y-90836211D01*
X161279403Y-90493866D01*
X161340724Y-90460383D01*
X161410415Y-90465367D01*
X161445286Y-90487777D01*
X161445293Y-90487767D01*
X161445878Y-90488158D01*
X161454763Y-90493868D01*
X161455446Y-90494551D01*
X161521769Y-90538867D01*
X161521770Y-90538868D01*
X161580247Y-90550499D01*
X161580250Y-90550500D01*
X161580252Y-90550500D01*
X162331767Y-90550500D01*
X162398806Y-90570185D01*
X162444561Y-90622989D01*
X162454505Y-90692147D01*
X162425480Y-90755703D01*
X162419448Y-90762181D01*
X158768448Y-94413181D01*
X158707125Y-94446666D01*
X158680767Y-94449500D01*
X158291316Y-94449500D01*
X158224277Y-94429815D01*
X158178522Y-94377011D01*
X158176755Y-94372952D01*
X158136635Y-94276092D01*
X158136628Y-94276079D01*
X158027139Y-94112218D01*
X158027136Y-94112214D01*
X157887785Y-93972863D01*
X157887781Y-93972860D01*
X157723920Y-93863371D01*
X157723907Y-93863364D01*
X157541839Y-93787950D01*
X157541829Y-93787947D01*
X157348543Y-93749500D01*
X157348541Y-93749500D01*
X157151459Y-93749500D01*
X157151457Y-93749500D01*
X156958170Y-93787947D01*
X156958160Y-93787950D01*
X156776092Y-93863364D01*
X156776079Y-93863371D01*
X156612218Y-93972860D01*
X156612214Y-93972863D01*
X156472863Y-94112214D01*
X156472860Y-94112218D01*
X156363371Y-94276079D01*
X156363364Y-94276092D01*
X156287950Y-94458160D01*
X156287947Y-94458170D01*
X156249500Y-94651456D01*
X156249500Y-94651459D01*
X156249500Y-94848541D01*
X156249500Y-94848543D01*
X156249499Y-94848543D01*
X156287947Y-95041829D01*
X156287950Y-95041839D01*
X156363364Y-95223907D01*
X156363371Y-95223920D01*
X156472860Y-95387781D01*
X156472863Y-95387785D01*
X156612214Y-95527136D01*
X156612218Y-95527139D01*
X156776079Y-95636628D01*
X156776092Y-95636635D01*
X156958160Y-95712049D01*
X156958165Y-95712051D01*
X156958169Y-95712051D01*
X156958170Y-95712052D01*
X157151456Y-95750500D01*
X157151459Y-95750500D01*
X157348543Y-95750500D01*
X157478582Y-95724632D01*
X157541835Y-95712051D01*
X157723914Y-95636632D01*
X157887782Y-95527139D01*
X158027139Y-95387782D01*
X158136632Y-95223914D01*
X158176755Y-95127048D01*
X158220595Y-95072644D01*
X158286889Y-95050579D01*
X158291316Y-95050500D01*
X158896160Y-95050500D01*
X158896162Y-95050500D01*
X158972589Y-95030021D01*
X159041111Y-94990460D01*
X159097060Y-94934511D01*
X163342160Y-90689411D01*
X163377482Y-90628231D01*
X163381721Y-90620889D01*
X163402200Y-90544462D01*
X163402200Y-89060438D01*
X163381721Y-88984011D01*
X163379548Y-88980247D01*
X163342164Y-88915495D01*
X163342158Y-88915487D01*
X163286212Y-88859541D01*
X163286204Y-88859535D01*
X163217695Y-88819982D01*
X163217690Y-88819979D01*
X163181474Y-88810275D01*
X163141262Y-88799500D01*
X163141260Y-88799500D01*
X163103919Y-88799500D01*
X163036880Y-88779815D01*
X162997848Y-88739726D01*
X162989792Y-88726422D01*
X162988867Y-88721769D01*
X162968698Y-88691585D01*
X162967270Y-88689226D01*
X162959004Y-88658010D01*
X162949361Y-88627215D01*
X162950118Y-88624453D01*
X162949385Y-88621684D01*
X162959309Y-88590948D01*
X162967845Y-88559835D01*
X162970240Y-88556108D01*
X162986277Y-88532107D01*
X162988867Y-88528231D01*
X162988867Y-88528230D01*
X162988868Y-88528229D01*
X162989360Y-88527043D01*
X162991122Y-88524855D01*
X162995653Y-88518076D01*
X162996259Y-88518481D01*
X163033203Y-88472641D01*
X163099498Y-88450579D01*
X163103919Y-88450500D01*
X163885467Y-88450500D01*
X163914907Y-88459144D01*
X163944894Y-88465668D01*
X163949909Y-88469422D01*
X163952506Y-88470185D01*
X163973148Y-88486819D01*
X163980081Y-88493752D01*
X164013566Y-88555075D01*
X164016400Y-88581433D01*
X164016400Y-88671492D01*
X164031603Y-88728231D01*
X164050508Y-88798787D01*
X164068818Y-88830500D01*
X164116400Y-88912914D01*
X164209586Y-89006100D01*
X164323714Y-89071992D01*
X164451008Y-89106100D01*
X164451010Y-89106100D01*
X164582790Y-89106100D01*
X164582792Y-89106100D01*
X164710086Y-89071992D01*
X164824214Y-89006100D01*
X164917400Y-88912914D01*
X164983292Y-88798786D01*
X165017400Y-88671492D01*
X165017400Y-88539708D01*
X164983292Y-88412414D01*
X164917400Y-88298286D01*
X164824214Y-88205100D01*
X164741204Y-88157174D01*
X164710087Y-88139208D01*
X164645226Y-88121829D01*
X164582792Y-88105100D01*
X164492733Y-88105100D01*
X164463292Y-88096455D01*
X164433306Y-88089932D01*
X164428290Y-88086177D01*
X164425694Y-88085415D01*
X164405052Y-88068781D01*
X164387252Y-88050981D01*
X164353767Y-87989658D01*
X164358751Y-87919966D01*
X164400623Y-87864033D01*
X164466087Y-87839616D01*
X164474933Y-87839300D01*
X166362904Y-87839300D01*
X166429943Y-87858985D01*
X166475698Y-87911789D01*
X166485642Y-87980947D01*
X166480837Y-88001610D01*
X166461521Y-88061057D01*
X166430290Y-88157173D01*
X166399500Y-88351577D01*
X166399500Y-88548422D01*
X166430290Y-88742826D01*
X166491117Y-88930029D01*
X166563451Y-89071991D01*
X166580476Y-89105405D01*
X166696172Y-89264646D01*
X166835354Y-89403828D01*
X166994595Y-89519524D01*
X167117992Y-89582397D01*
X167171213Y-89609515D01*
X167222009Y-89657489D01*
X167238804Y-89725310D01*
X167216267Y-89791445D01*
X167171213Y-89830485D01*
X166994594Y-89920476D01*
X166952263Y-89951232D01*
X166835354Y-90036172D01*
X166835352Y-90036174D01*
X166835351Y-90036174D01*
X166696174Y-90175351D01*
X166696174Y-90175352D01*
X166696172Y-90175354D01*
X166655489Y-90231349D01*
X166580476Y-90334594D01*
X166491117Y-90509970D01*
X166430290Y-90697173D01*
X166399500Y-90891577D01*
X166399500Y-91088422D01*
X166430290Y-91282826D01*
X166491117Y-91470029D01*
X166580476Y-91645405D01*
X166696172Y-91804646D01*
X166835354Y-91943828D01*
X166994595Y-92059524D01*
X167077455Y-92101743D01*
X167169970Y-92148882D01*
X167169972Y-92148882D01*
X167169975Y-92148884D01*
X167270317Y-92181487D01*
X167357173Y-92209709D01*
X167551578Y-92240500D01*
X167551583Y-92240500D01*
X167748422Y-92240500D01*
X167942826Y-92209709D01*
X168130025Y-92148884D01*
X168305405Y-92059524D01*
X168464646Y-91943828D01*
X168603828Y-91804646D01*
X168719524Y-91645405D01*
X168808884Y-91470025D01*
X168869709Y-91282826D01*
X168878673Y-91226229D01*
X168900500Y-91088422D01*
X168900500Y-90891577D01*
X168869709Y-90697173D01*
X168844922Y-90620888D01*
X168808884Y-90509975D01*
X168808881Y-90509970D01*
X168808880Y-90509965D01*
X168764087Y-90422055D01*
X168751190Y-90353386D01*
X168777466Y-90288646D01*
X168786880Y-90278089D01*
X169254460Y-89810511D01*
X169282968Y-89761133D01*
X169294021Y-89741989D01*
X169314500Y-89665562D01*
X169314500Y-87861038D01*
X169294021Y-87784611D01*
X169281494Y-87762914D01*
X169254464Y-87716095D01*
X169254458Y-87716087D01*
X165477913Y-83939542D01*
X165477911Y-83939540D01*
X165453593Y-83925500D01*
X165409391Y-83899980D01*
X165409390Y-83899979D01*
X165383913Y-83893152D01*
X165332962Y-83879500D01*
X165332960Y-83879500D01*
X147442997Y-83879500D01*
X147375958Y-83859815D01*
X147342077Y-83827550D01*
X147339194Y-83823512D01*
X147256485Y-83740803D01*
X147151391Y-83689426D01*
X147083261Y-83679500D01*
X147083260Y-83679500D01*
X145366740Y-83679500D01*
X145323731Y-83685766D01*
X145297376Y-83689606D01*
X145279611Y-83687085D01*
X145261853Y-83689639D01*
X145245737Y-83682279D01*
X145228200Y-83679791D01*
X145214620Y-83668068D01*
X145198297Y-83660614D01*
X145188718Y-83645709D01*
X145175310Y-83634135D01*
X145170223Y-83616929D01*
X145160523Y-83601836D01*
X145155564Y-83567352D01*
X145155500Y-83567133D01*
X145155500Y-83523098D01*
X145175185Y-83456059D01*
X145227989Y-83410304D01*
X145297147Y-83400360D01*
X145297378Y-83400394D01*
X145366739Y-83410500D01*
X145366740Y-83410500D01*
X147083261Y-83410500D01*
X147105971Y-83407191D01*
X147151393Y-83400573D01*
X147256483Y-83349198D01*
X147339198Y-83266483D01*
X147390573Y-83161393D01*
X147400500Y-83093260D01*
X147400500Y-83086933D01*
X147420185Y-83019894D01*
X147436819Y-82999252D01*
X148045457Y-82390614D01*
X148673860Y-81762211D01*
X148713422Y-81693688D01*
X148733900Y-81617262D01*
X148733900Y-81538138D01*
X148733900Y-80886638D01*
X148726916Y-80860573D01*
X148713422Y-80810212D01*
X148673860Y-80741689D01*
X145171711Y-77239540D01*
X145171709Y-77239539D01*
X145171704Y-77239535D01*
X145103195Y-77199982D01*
X145103190Y-77199979D01*
X145077713Y-77193152D01*
X145026762Y-77179500D01*
X145026760Y-77179500D01*
X138291316Y-77179500D01*
X138224277Y-77159815D01*
X138178522Y-77107011D01*
X138176755Y-77102952D01*
X138136635Y-77006092D01*
X138136628Y-77006079D01*
X138027139Y-76842218D01*
X138027136Y-76842214D01*
X137887785Y-76702863D01*
X137887781Y-76702860D01*
X137723920Y-76593371D01*
X137723907Y-76593364D01*
X137541839Y-76517950D01*
X137541829Y-76517947D01*
X137348543Y-76479500D01*
X137348541Y-76479500D01*
X137151459Y-76479500D01*
X137151457Y-76479500D01*
X136958170Y-76517947D01*
X136958160Y-76517950D01*
X136776092Y-76593364D01*
X136776079Y-76593371D01*
X136612218Y-76702860D01*
X136612214Y-76702863D01*
X136472863Y-76842214D01*
X136472860Y-76842218D01*
X136363371Y-77006079D01*
X136363364Y-77006092D01*
X136287950Y-77188160D01*
X136287947Y-77188170D01*
X136249500Y-77381456D01*
X136249500Y-77381459D01*
X136249500Y-77578541D01*
X136249500Y-77578543D01*
X136249499Y-77578543D01*
X136287947Y-77771829D01*
X136287950Y-77771839D01*
X136363364Y-77953907D01*
X136363371Y-77953920D01*
X136472860Y-78117781D01*
X136472863Y-78117785D01*
X136612214Y-78257136D01*
X136612218Y-78257139D01*
X136776079Y-78366628D01*
X136776092Y-78366635D01*
X136958160Y-78442049D01*
X136958165Y-78442051D01*
X136958169Y-78442051D01*
X136958170Y-78442052D01*
X137151456Y-78480500D01*
X137151459Y-78480500D01*
X137348543Y-78480500D01*
X137478582Y-78454632D01*
X137541835Y-78442051D01*
X137723914Y-78366632D01*
X137887782Y-78257139D01*
X138027139Y-78117782D01*
X138136632Y-77953914D01*
X138176755Y-77857048D01*
X138220595Y-77802644D01*
X138286889Y-77780579D01*
X138291316Y-77780500D01*
X144811367Y-77780500D01*
X144878406Y-77800185D01*
X144899048Y-77816819D01*
X146740048Y-79657819D01*
X146773533Y-79719142D01*
X146768549Y-79788834D01*
X146726677Y-79844767D01*
X146661213Y-79869184D01*
X146652367Y-79869500D01*
X146200833Y-79869500D01*
X146133794Y-79849815D01*
X146113152Y-79833181D01*
X145765515Y-79485543D01*
X145765514Y-79485542D01*
X145765511Y-79485540D01*
X145754493Y-79479179D01*
X145696989Y-79445979D01*
X145620562Y-79425500D01*
X131014438Y-79425500D01*
X130963486Y-79439152D01*
X130938010Y-79445979D01*
X130912656Y-79460617D01*
X130880507Y-79479179D01*
X130873330Y-79483322D01*
X130869485Y-79485542D01*
X129650394Y-80704633D01*
X129589071Y-80738118D01*
X129519379Y-80733134D01*
X129506419Y-80727437D01*
X129472452Y-80710130D01*
X129472446Y-80710127D01*
X129472445Y-80710127D01*
X129307701Y-80656598D01*
X129307699Y-80656597D01*
X129307698Y-80656597D01*
X129176271Y-80635781D01*
X129136611Y-80629500D01*
X128963389Y-80629500D01*
X128923728Y-80635781D01*
X128792302Y-80656597D01*
X128627552Y-80710128D01*
X128473211Y-80788768D01*
X128395030Y-80845571D01*
X128333072Y-80890586D01*
X128333070Y-80890588D01*
X128333069Y-80890588D01*
X128210588Y-81013069D01*
X128210588Y-81013070D01*
X128210586Y-81013072D01*
X128175157Y-81061836D01*
X128108768Y-81153211D01*
X128030126Y-81307554D01*
X128018343Y-81343820D01*
X127978905Y-81401495D01*
X127914546Y-81428692D01*
X127900413Y-81429500D01*
X123629447Y-81429500D01*
X123562408Y-81409815D01*
X123522060Y-81367501D01*
X123517717Y-81359979D01*
X123494860Y-81320389D01*
X122879611Y-80705140D01*
X122879610Y-80705139D01*
X122879607Y-80705137D01*
X122868320Y-80698621D01*
X122868318Y-80698620D01*
X122811091Y-80665580D01*
X122811090Y-80665579D01*
X122777568Y-80656597D01*
X122734662Y-80645100D01*
X120765338Y-80645100D01*
X120727124Y-80655339D01*
X120688909Y-80665579D01*
X120688908Y-80665580D01*
X120631682Y-80698620D01*
X120631680Y-80698621D01*
X120620392Y-80705137D01*
X120620387Y-80705141D01*
X120362348Y-80963181D01*
X120301025Y-80996666D01*
X120274667Y-80999500D01*
X116150833Y-80999500D01*
X116083794Y-80979815D01*
X116083456Y-80979598D01*
X116072437Y-80972466D01*
X116047765Y-80947794D01*
X116005455Y-80929112D01*
X115997181Y-80923757D01*
X115980556Y-80904445D01*
X115961095Y-80888006D01*
X115958146Y-80878413D01*
X115951597Y-80870805D01*
X115948052Y-80845571D01*
X115940568Y-80821220D01*
X115943274Y-80811554D01*
X115941878Y-80801615D01*
X115952537Y-80778471D01*
X115959407Y-80753938D01*
X115969929Y-80740710D01*
X115971108Y-80738153D01*
X115972847Y-80737042D01*
X115976878Y-80731977D01*
X116018880Y-80689975D01*
X116018883Y-80689972D01*
X116107783Y-80556923D01*
X116120166Y-80538391D01*
X116120168Y-80538387D01*
X116159035Y-80444552D01*
X116189933Y-80369958D01*
X116225500Y-80191154D01*
X116225500Y-80008846D01*
X116225500Y-80008843D01*
X116189934Y-79830047D01*
X116189933Y-79830046D01*
X116189933Y-79830042D01*
X116143997Y-79719142D01*
X116120168Y-79661612D01*
X116120166Y-79661608D01*
X116018886Y-79510032D01*
X116018880Y-79510024D01*
X115889975Y-79381119D01*
X115889967Y-79381113D01*
X115738391Y-79279833D01*
X115738387Y-79279831D01*
X115569962Y-79210068D01*
X115569952Y-79210065D01*
X115391156Y-79174500D01*
X115391154Y-79174500D01*
X115208846Y-79174500D01*
X115208844Y-79174500D01*
X115030047Y-79210065D01*
X115030037Y-79210068D01*
X114861612Y-79279831D01*
X114861608Y-79279833D01*
X114710032Y-79381113D01*
X114710024Y-79381119D01*
X114581119Y-79510024D01*
X114581113Y-79510032D01*
X114479833Y-79661608D01*
X114479831Y-79661612D01*
X114410068Y-79830037D01*
X114410065Y-79830047D01*
X114374500Y-80008843D01*
X114374500Y-80008846D01*
X114374500Y-80191154D01*
X114374500Y-80191156D01*
X114374499Y-80191156D01*
X114410065Y-80369952D01*
X114410068Y-80369962D01*
X114479831Y-80538387D01*
X114479833Y-80538391D01*
X114581113Y-80689967D01*
X114581119Y-80689975D01*
X114623122Y-80731978D01*
X114656607Y-80793301D01*
X114651623Y-80862993D01*
X114609751Y-80918926D01*
X114585530Y-80933092D01*
X114552235Y-80947793D01*
X114472794Y-81027234D01*
X114427415Y-81130006D01*
X114427415Y-81130008D01*
X114424500Y-81155131D01*
X114424500Y-81444856D01*
X114424502Y-81444882D01*
X114427413Y-81469986D01*
X114427414Y-81469990D01*
X114427415Y-81469991D01*
X114472794Y-81572765D01*
X114472795Y-81572766D01*
X114473743Y-81574913D01*
X114482814Y-81644191D01*
X114473743Y-81675085D01*
X114427415Y-81780009D01*
X114424500Y-81805131D01*
X114424500Y-82094856D01*
X114424502Y-82094882D01*
X114427413Y-82119986D01*
X114427414Y-82119990D01*
X114427415Y-82119991D01*
X114472794Y-82222765D01*
X114472795Y-82222766D01*
X114473743Y-82224913D01*
X114482814Y-82294191D01*
X114473743Y-82325085D01*
X114427415Y-82430009D01*
X114424500Y-82455131D01*
X114424500Y-82744856D01*
X114424502Y-82744882D01*
X114427413Y-82769986D01*
X114427414Y-82769990D01*
X114427415Y-82769991D01*
X114472794Y-82872765D01*
X114472795Y-82872766D01*
X114473743Y-82874913D01*
X114482814Y-82944191D01*
X114473743Y-82975085D01*
X114427415Y-83080009D01*
X114424500Y-83105131D01*
X114424500Y-83213148D01*
X114404815Y-83280187D01*
X114375987Y-83311523D01*
X114297077Y-83372073D01*
X114200899Y-83497413D01*
X114140444Y-83643368D01*
X114132987Y-83700000D01*
X113750500Y-83700000D01*
X113750500Y-83045730D01*
X113747646Y-83015300D01*
X113747646Y-83015298D01*
X113702793Y-82887119D01*
X113702792Y-82887117D01*
X113692200Y-82872765D01*
X113622150Y-82777850D01*
X113622148Y-82777849D01*
X113622148Y-82777848D01*
X113516355Y-82699770D01*
X113474104Y-82644123D01*
X113468645Y-82574467D01*
X113501712Y-82512917D01*
X113516355Y-82500230D01*
X113544935Y-82479136D01*
X113622150Y-82422150D01*
X113702793Y-82312882D01*
X113734590Y-82222011D01*
X113747646Y-82184701D01*
X113747646Y-82184699D01*
X113750500Y-82154269D01*
X113750500Y-81045730D01*
X113747646Y-81015300D01*
X113747646Y-81015298D01*
X113708856Y-80904445D01*
X113702793Y-80887118D01*
X113622150Y-80777850D01*
X113622148Y-80777849D01*
X113622148Y-80777848D01*
X113540800Y-80717811D01*
X113498549Y-80662164D01*
X113493090Y-80592508D01*
X113526157Y-80530958D01*
X113587251Y-80497057D01*
X113590242Y-80496424D01*
X113628229Y-80488868D01*
X113628229Y-80488867D01*
X113628231Y-80488867D01*
X113694552Y-80444552D01*
X113738867Y-80378231D01*
X113738867Y-80378229D01*
X113738868Y-80378229D01*
X113750499Y-80319752D01*
X113750500Y-80319750D01*
X113750500Y-79021155D01*
X113750499Y-79021153D01*
X113719738Y-78866510D01*
X113719737Y-78866503D01*
X113719735Y-78866498D01*
X113659397Y-78720827D01*
X113659390Y-78720814D01*
X113571789Y-78589711D01*
X113571786Y-78589707D01*
X113460292Y-78478213D01*
X113460288Y-78478210D01*
X113329185Y-78390609D01*
X113329172Y-78390602D01*
X113183501Y-78330264D01*
X113183489Y-78330261D01*
X113028845Y-78299500D01*
X113028842Y-78299500D01*
X112171158Y-78299500D01*
X112171155Y-78299500D01*
X112016510Y-78330261D01*
X112016498Y-78330264D01*
X111870827Y-78390602D01*
X111870814Y-78390609D01*
X111739711Y-78478210D01*
X111739707Y-78478213D01*
X111628213Y-78589707D01*
X111628210Y-78589711D01*
X111540609Y-78720814D01*
X111540602Y-78720827D01*
X111480264Y-78866498D01*
X111480261Y-78866510D01*
X111449500Y-79021153D01*
X108250500Y-79021153D01*
X108250500Y-75823820D01*
X108270185Y-75756781D01*
X108322989Y-75711026D01*
X108374397Y-75699820D01*
X170124000Y-75650500D01*
X170925500Y-75650500D01*
X170992539Y-75670185D01*
G37*
%TD.AperFunction*%
%TD*%
M02*
