%TF.GenerationSoftware,KiCad,Pcbnew,10.0.3*%
%TF.CreationDate,2026-07-07T13:46:15+05:30*%
%TF.ProjectId,18650_battery_chargering,31383635-305f-4626-9174-746572795f63,rev?*%
%TF.SameCoordinates,Original*%
%TF.FileFunction,Legend,Top*%
%TF.FilePolarity,Positive*%
%FSLAX46Y46*%
G04 Gerber Fmt 4.6, Leading zero omitted, Abs format (unit mm)*
G04 Created by KiCad (PCBNEW 10.0.3) date 2026-07-07 13:46:15*
%MOMM*%
%LPD*%
G01*
G04 APERTURE LIST*
%ADD10C,0.150000*%
%ADD11C,0.254000*%
%ADD12C,0.120000*%
%ADD13C,0.100000*%
%ADD14C,0.200000*%
G04 APERTURE END LIST*
D10*
X146383333Y-87704819D02*
X146050000Y-87228628D01*
X145811905Y-87704819D02*
X145811905Y-86704819D01*
X145811905Y-86704819D02*
X146192857Y-86704819D01*
X146192857Y-86704819D02*
X146288095Y-86752438D01*
X146288095Y-86752438D02*
X146335714Y-86800057D01*
X146335714Y-86800057D02*
X146383333Y-86895295D01*
X146383333Y-86895295D02*
X146383333Y-87038152D01*
X146383333Y-87038152D02*
X146335714Y-87133390D01*
X146335714Y-87133390D02*
X146288095Y-87181009D01*
X146288095Y-87181009D02*
X146192857Y-87228628D01*
X146192857Y-87228628D02*
X145811905Y-87228628D01*
X146716667Y-86704819D02*
X147335714Y-86704819D01*
X147335714Y-86704819D02*
X147002381Y-87085771D01*
X147002381Y-87085771D02*
X147145238Y-87085771D01*
X147145238Y-87085771D02*
X147240476Y-87133390D01*
X147240476Y-87133390D02*
X147288095Y-87181009D01*
X147288095Y-87181009D02*
X147335714Y-87276247D01*
X147335714Y-87276247D02*
X147335714Y-87514342D01*
X147335714Y-87514342D02*
X147288095Y-87609580D01*
X147288095Y-87609580D02*
X147240476Y-87657200D01*
X147240476Y-87657200D02*
X147145238Y-87704819D01*
X147145238Y-87704819D02*
X146859524Y-87704819D01*
X146859524Y-87704819D02*
X146764286Y-87657200D01*
X146764286Y-87657200D02*
X146716667Y-87609580D01*
X125504819Y-90688094D02*
X124504819Y-90688094D01*
X124504819Y-90688094D02*
X124504819Y-90449999D01*
X124504819Y-90449999D02*
X124552438Y-90307142D01*
X124552438Y-90307142D02*
X124647676Y-90211904D01*
X124647676Y-90211904D02*
X124742914Y-90164285D01*
X124742914Y-90164285D02*
X124933390Y-90116666D01*
X124933390Y-90116666D02*
X125076247Y-90116666D01*
X125076247Y-90116666D02*
X125266723Y-90164285D01*
X125266723Y-90164285D02*
X125361961Y-90211904D01*
X125361961Y-90211904D02*
X125457200Y-90307142D01*
X125457200Y-90307142D02*
X125504819Y-90449999D01*
X125504819Y-90449999D02*
X125504819Y-90688094D01*
X124600057Y-89735713D02*
X124552438Y-89688094D01*
X124552438Y-89688094D02*
X124504819Y-89592856D01*
X124504819Y-89592856D02*
X124504819Y-89354761D01*
X124504819Y-89354761D02*
X124552438Y-89259523D01*
X124552438Y-89259523D02*
X124600057Y-89211904D01*
X124600057Y-89211904D02*
X124695295Y-89164285D01*
X124695295Y-89164285D02*
X124790533Y-89164285D01*
X124790533Y-89164285D02*
X124933390Y-89211904D01*
X124933390Y-89211904D02*
X125504819Y-89783332D01*
X125504819Y-89783332D02*
X125504819Y-89164285D01*
X120583333Y-86559580D02*
X120535714Y-86607200D01*
X120535714Y-86607200D02*
X120392857Y-86654819D01*
X120392857Y-86654819D02*
X120297619Y-86654819D01*
X120297619Y-86654819D02*
X120154762Y-86607200D01*
X120154762Y-86607200D02*
X120059524Y-86511961D01*
X120059524Y-86511961D02*
X120011905Y-86416723D01*
X120011905Y-86416723D02*
X119964286Y-86226247D01*
X119964286Y-86226247D02*
X119964286Y-86083390D01*
X119964286Y-86083390D02*
X120011905Y-85892914D01*
X120011905Y-85892914D02*
X120059524Y-85797676D01*
X120059524Y-85797676D02*
X120154762Y-85702438D01*
X120154762Y-85702438D02*
X120297619Y-85654819D01*
X120297619Y-85654819D02*
X120392857Y-85654819D01*
X120392857Y-85654819D02*
X120535714Y-85702438D01*
X120535714Y-85702438D02*
X120583333Y-85750057D01*
X121535714Y-86654819D02*
X120964286Y-86654819D01*
X121250000Y-86654819D02*
X121250000Y-85654819D01*
X121250000Y-85654819D02*
X121154762Y-85797676D01*
X121154762Y-85797676D02*
X121059524Y-85892914D01*
X121059524Y-85892914D02*
X120964286Y-85940533D01*
X142988095Y-78329819D02*
X142988095Y-79139342D01*
X142988095Y-79139342D02*
X143035714Y-79234580D01*
X143035714Y-79234580D02*
X143083333Y-79282200D01*
X143083333Y-79282200D02*
X143178571Y-79329819D01*
X143178571Y-79329819D02*
X143369047Y-79329819D01*
X143369047Y-79329819D02*
X143464285Y-79282200D01*
X143464285Y-79282200D02*
X143511904Y-79234580D01*
X143511904Y-79234580D02*
X143559523Y-79139342D01*
X143559523Y-79139342D02*
X143559523Y-78329819D01*
X144559523Y-79329819D02*
X143988095Y-79329819D01*
X144273809Y-79329819D02*
X144273809Y-78329819D01*
X144273809Y-78329819D02*
X144178571Y-78472676D01*
X144178571Y-78472676D02*
X144083333Y-78567914D01*
X144083333Y-78567914D02*
X143988095Y-78615533D01*
X120056667Y-97964700D02*
X120199524Y-98012319D01*
X120199524Y-98012319D02*
X120437619Y-98012319D01*
X120437619Y-98012319D02*
X120532857Y-97964700D01*
X120532857Y-97964700D02*
X120580476Y-97917080D01*
X120580476Y-97917080D02*
X120628095Y-97821842D01*
X120628095Y-97821842D02*
X120628095Y-97726604D01*
X120628095Y-97726604D02*
X120580476Y-97631366D01*
X120580476Y-97631366D02*
X120532857Y-97583747D01*
X120532857Y-97583747D02*
X120437619Y-97536128D01*
X120437619Y-97536128D02*
X120247143Y-97488509D01*
X120247143Y-97488509D02*
X120151905Y-97440890D01*
X120151905Y-97440890D02*
X120104286Y-97393271D01*
X120104286Y-97393271D02*
X120056667Y-97298033D01*
X120056667Y-97298033D02*
X120056667Y-97202795D01*
X120056667Y-97202795D02*
X120104286Y-97107557D01*
X120104286Y-97107557D02*
X120151905Y-97059938D01*
X120151905Y-97059938D02*
X120247143Y-97012319D01*
X120247143Y-97012319D02*
X120485238Y-97012319D01*
X120485238Y-97012319D02*
X120628095Y-97059938D01*
X120961429Y-97012319D02*
X121199524Y-98012319D01*
X121199524Y-98012319D02*
X121390000Y-97298033D01*
X121390000Y-97298033D02*
X121580476Y-98012319D01*
X121580476Y-98012319D02*
X121818572Y-97012319D01*
X122723333Y-98012319D02*
X122151905Y-98012319D01*
X122437619Y-98012319D02*
X122437619Y-97012319D01*
X122437619Y-97012319D02*
X122342381Y-97155176D01*
X122342381Y-97155176D02*
X122247143Y-97250414D01*
X122247143Y-97250414D02*
X122151905Y-97298033D01*
X142584819Y-98216666D02*
X142108628Y-98549999D01*
X142584819Y-98788094D02*
X141584819Y-98788094D01*
X141584819Y-98788094D02*
X141584819Y-98407142D01*
X141584819Y-98407142D02*
X141632438Y-98311904D01*
X141632438Y-98311904D02*
X141680057Y-98264285D01*
X141680057Y-98264285D02*
X141775295Y-98216666D01*
X141775295Y-98216666D02*
X141918152Y-98216666D01*
X141918152Y-98216666D02*
X142013390Y-98264285D01*
X142013390Y-98264285D02*
X142061009Y-98311904D01*
X142061009Y-98311904D02*
X142108628Y-98407142D01*
X142108628Y-98407142D02*
X142108628Y-98788094D01*
X141584819Y-97359523D02*
X141584819Y-97549999D01*
X141584819Y-97549999D02*
X141632438Y-97645237D01*
X141632438Y-97645237D02*
X141680057Y-97692856D01*
X141680057Y-97692856D02*
X141822914Y-97788094D01*
X141822914Y-97788094D02*
X142013390Y-97835713D01*
X142013390Y-97835713D02*
X142394342Y-97835713D01*
X142394342Y-97835713D02*
X142489580Y-97788094D01*
X142489580Y-97788094D02*
X142537200Y-97740475D01*
X142537200Y-97740475D02*
X142584819Y-97645237D01*
X142584819Y-97645237D02*
X142584819Y-97454761D01*
X142584819Y-97454761D02*
X142537200Y-97359523D01*
X142537200Y-97359523D02*
X142489580Y-97311904D01*
X142489580Y-97311904D02*
X142394342Y-97264285D01*
X142394342Y-97264285D02*
X142156247Y-97264285D01*
X142156247Y-97264285D02*
X142061009Y-97311904D01*
X142061009Y-97311904D02*
X142013390Y-97359523D01*
X142013390Y-97359523D02*
X141965771Y-97454761D01*
X141965771Y-97454761D02*
X141965771Y-97645237D01*
X141965771Y-97645237D02*
X142013390Y-97740475D01*
X142013390Y-97740475D02*
X142061009Y-97788094D01*
X142061009Y-97788094D02*
X142156247Y-97835713D01*
X153483333Y-98984819D02*
X153150000Y-98508628D01*
X152911905Y-98984819D02*
X152911905Y-97984819D01*
X152911905Y-97984819D02*
X153292857Y-97984819D01*
X153292857Y-97984819D02*
X153388095Y-98032438D01*
X153388095Y-98032438D02*
X153435714Y-98080057D01*
X153435714Y-98080057D02*
X153483333Y-98175295D01*
X153483333Y-98175295D02*
X153483333Y-98318152D01*
X153483333Y-98318152D02*
X153435714Y-98413390D01*
X153435714Y-98413390D02*
X153388095Y-98461009D01*
X153388095Y-98461009D02*
X153292857Y-98508628D01*
X153292857Y-98508628D02*
X152911905Y-98508628D01*
X154388095Y-97984819D02*
X153911905Y-97984819D01*
X153911905Y-97984819D02*
X153864286Y-98461009D01*
X153864286Y-98461009D02*
X153911905Y-98413390D01*
X153911905Y-98413390D02*
X154007143Y-98365771D01*
X154007143Y-98365771D02*
X154245238Y-98365771D01*
X154245238Y-98365771D02*
X154340476Y-98413390D01*
X154340476Y-98413390D02*
X154388095Y-98461009D01*
X154388095Y-98461009D02*
X154435714Y-98556247D01*
X154435714Y-98556247D02*
X154435714Y-98794342D01*
X154435714Y-98794342D02*
X154388095Y-98889580D01*
X154388095Y-98889580D02*
X154340476Y-98937200D01*
X154340476Y-98937200D02*
X154245238Y-98984819D01*
X154245238Y-98984819D02*
X154007143Y-98984819D01*
X154007143Y-98984819D02*
X153911905Y-98937200D01*
X153911905Y-98937200D02*
X153864286Y-98889580D01*
X153273333Y-97574819D02*
X152940000Y-97098628D01*
X152701905Y-97574819D02*
X152701905Y-96574819D01*
X152701905Y-96574819D02*
X153082857Y-96574819D01*
X153082857Y-96574819D02*
X153178095Y-96622438D01*
X153178095Y-96622438D02*
X153225714Y-96670057D01*
X153225714Y-96670057D02*
X153273333Y-96765295D01*
X153273333Y-96765295D02*
X153273333Y-96908152D01*
X153273333Y-96908152D02*
X153225714Y-97003390D01*
X153225714Y-97003390D02*
X153178095Y-97051009D01*
X153178095Y-97051009D02*
X153082857Y-97098628D01*
X153082857Y-97098628D02*
X152701905Y-97098628D01*
X154130476Y-96908152D02*
X154130476Y-97574819D01*
X153892381Y-96527200D02*
X153654286Y-97241485D01*
X153654286Y-97241485D02*
X154273333Y-97241485D01*
X135334819Y-81456666D02*
X134858628Y-81789999D01*
X135334819Y-82028094D02*
X134334819Y-82028094D01*
X134334819Y-82028094D02*
X134334819Y-81647142D01*
X134334819Y-81647142D02*
X134382438Y-81551904D01*
X134382438Y-81551904D02*
X134430057Y-81504285D01*
X134430057Y-81504285D02*
X134525295Y-81456666D01*
X134525295Y-81456666D02*
X134668152Y-81456666D01*
X134668152Y-81456666D02*
X134763390Y-81504285D01*
X134763390Y-81504285D02*
X134811009Y-81551904D01*
X134811009Y-81551904D02*
X134858628Y-81647142D01*
X134858628Y-81647142D02*
X134858628Y-82028094D01*
X134430057Y-81075713D02*
X134382438Y-81028094D01*
X134382438Y-81028094D02*
X134334819Y-80932856D01*
X134334819Y-80932856D02*
X134334819Y-80694761D01*
X134334819Y-80694761D02*
X134382438Y-80599523D01*
X134382438Y-80599523D02*
X134430057Y-80551904D01*
X134430057Y-80551904D02*
X134525295Y-80504285D01*
X134525295Y-80504285D02*
X134620533Y-80504285D01*
X134620533Y-80504285D02*
X134763390Y-80551904D01*
X134763390Y-80551904D02*
X135334819Y-81123332D01*
X135334819Y-81123332D02*
X135334819Y-80504285D01*
X135534819Y-91806666D02*
X135058628Y-92139999D01*
X135534819Y-92378094D02*
X134534819Y-92378094D01*
X134534819Y-92378094D02*
X134534819Y-91997142D01*
X134534819Y-91997142D02*
X134582438Y-91901904D01*
X134582438Y-91901904D02*
X134630057Y-91854285D01*
X134630057Y-91854285D02*
X134725295Y-91806666D01*
X134725295Y-91806666D02*
X134868152Y-91806666D01*
X134868152Y-91806666D02*
X134963390Y-91854285D01*
X134963390Y-91854285D02*
X135011009Y-91901904D01*
X135011009Y-91901904D02*
X135058628Y-91997142D01*
X135058628Y-91997142D02*
X135058628Y-92378094D01*
X135534819Y-90854285D02*
X135534819Y-91425713D01*
X135534819Y-91139999D02*
X134534819Y-91139999D01*
X134534819Y-91139999D02*
X134677676Y-91235237D01*
X134677676Y-91235237D02*
X134772914Y-91330475D01*
X134772914Y-91330475D02*
X134820533Y-91425713D01*
D11*
X153429047Y-86545270D02*
X153308095Y-86484794D01*
X153308095Y-86484794D02*
X153187142Y-86363842D01*
X153187142Y-86363842D02*
X153005714Y-86182413D01*
X153005714Y-86182413D02*
X152884761Y-86121937D01*
X152884761Y-86121937D02*
X152763809Y-86121937D01*
X152824285Y-86424318D02*
X152703333Y-86363842D01*
X152703333Y-86363842D02*
X152582380Y-86242889D01*
X152582380Y-86242889D02*
X152521904Y-86000984D01*
X152521904Y-86000984D02*
X152521904Y-85577651D01*
X152521904Y-85577651D02*
X152582380Y-85335746D01*
X152582380Y-85335746D02*
X152703333Y-85214794D01*
X152703333Y-85214794D02*
X152824285Y-85154318D01*
X152824285Y-85154318D02*
X153066190Y-85154318D01*
X153066190Y-85154318D02*
X153187142Y-85214794D01*
X153187142Y-85214794D02*
X153308095Y-85335746D01*
X153308095Y-85335746D02*
X153368571Y-85577651D01*
X153368571Y-85577651D02*
X153368571Y-86000984D01*
X153368571Y-86000984D02*
X153308095Y-86242889D01*
X153308095Y-86242889D02*
X153187142Y-86363842D01*
X153187142Y-86363842D02*
X153066190Y-86424318D01*
X153066190Y-86424318D02*
X152824285Y-86424318D01*
X154578095Y-86424318D02*
X153852380Y-86424318D01*
X154215237Y-86424318D02*
X154215237Y-85154318D01*
X154215237Y-85154318D02*
X154094285Y-85335746D01*
X154094285Y-85335746D02*
X153973333Y-85456699D01*
X153973333Y-85456699D02*
X153852380Y-85517175D01*
D10*
X140016666Y-99994819D02*
X140016666Y-100709104D01*
X140016666Y-100709104D02*
X139969047Y-100851961D01*
X139969047Y-100851961D02*
X139873809Y-100947200D01*
X139873809Y-100947200D02*
X139730952Y-100994819D01*
X139730952Y-100994819D02*
X139635714Y-100994819D01*
X140397619Y-99994819D02*
X141016666Y-99994819D01*
X141016666Y-99994819D02*
X140683333Y-100375771D01*
X140683333Y-100375771D02*
X140826190Y-100375771D01*
X140826190Y-100375771D02*
X140921428Y-100423390D01*
X140921428Y-100423390D02*
X140969047Y-100471009D01*
X140969047Y-100471009D02*
X141016666Y-100566247D01*
X141016666Y-100566247D02*
X141016666Y-100804342D01*
X141016666Y-100804342D02*
X140969047Y-100899580D01*
X140969047Y-100899580D02*
X140921428Y-100947200D01*
X140921428Y-100947200D02*
X140826190Y-100994819D01*
X140826190Y-100994819D02*
X140540476Y-100994819D01*
X140540476Y-100994819D02*
X140445238Y-100947200D01*
X140445238Y-100947200D02*
X140397619Y-100899580D01*
X166266666Y-85674819D02*
X166266666Y-86389104D01*
X166266666Y-86389104D02*
X166219047Y-86531961D01*
X166219047Y-86531961D02*
X166123809Y-86627200D01*
X166123809Y-86627200D02*
X165980952Y-86674819D01*
X165980952Y-86674819D02*
X165885714Y-86674819D01*
X166695238Y-85770057D02*
X166742857Y-85722438D01*
X166742857Y-85722438D02*
X166838095Y-85674819D01*
X166838095Y-85674819D02*
X167076190Y-85674819D01*
X167076190Y-85674819D02*
X167171428Y-85722438D01*
X167171428Y-85722438D02*
X167219047Y-85770057D01*
X167219047Y-85770057D02*
X167266666Y-85865295D01*
X167266666Y-85865295D02*
X167266666Y-85960533D01*
X167266666Y-85960533D02*
X167219047Y-86103390D01*
X167219047Y-86103390D02*
X166647619Y-86674819D01*
X166647619Y-86674819D02*
X167266666Y-86674819D01*
X116404819Y-82933333D02*
X117119104Y-82933333D01*
X117119104Y-82933333D02*
X117261961Y-82980952D01*
X117261961Y-82980952D02*
X117357200Y-83076190D01*
X117357200Y-83076190D02*
X117404819Y-83219047D01*
X117404819Y-83219047D02*
X117404819Y-83314285D01*
X117404819Y-81933333D02*
X117404819Y-82504761D01*
X117404819Y-82219047D02*
X116404819Y-82219047D01*
X116404819Y-82219047D02*
X116547676Y-82314285D01*
X116547676Y-82314285D02*
X116642914Y-82409523D01*
X116642914Y-82409523D02*
X116690533Y-82504761D01*
D11*
X159710237Y-87074318D02*
X159710237Y-85804318D01*
X161040714Y-86953365D02*
X160980238Y-87013842D01*
X160980238Y-87013842D02*
X160798809Y-87074318D01*
X160798809Y-87074318D02*
X160677857Y-87074318D01*
X160677857Y-87074318D02*
X160496428Y-87013842D01*
X160496428Y-87013842D02*
X160375476Y-86892889D01*
X160375476Y-86892889D02*
X160314999Y-86771937D01*
X160314999Y-86771937D02*
X160254523Y-86530032D01*
X160254523Y-86530032D02*
X160254523Y-86348603D01*
X160254523Y-86348603D02*
X160314999Y-86106699D01*
X160314999Y-86106699D02*
X160375476Y-85985746D01*
X160375476Y-85985746D02*
X160496428Y-85864794D01*
X160496428Y-85864794D02*
X160677857Y-85804318D01*
X160677857Y-85804318D02*
X160798809Y-85804318D01*
X160798809Y-85804318D02*
X160980238Y-85864794D01*
X160980238Y-85864794D02*
X161040714Y-85925270D01*
X162250238Y-87074318D02*
X161524523Y-87074318D01*
X161887380Y-87074318D02*
X161887380Y-85804318D01*
X161887380Y-85804318D02*
X161766428Y-85985746D01*
X161766428Y-85985746D02*
X161645476Y-86106699D01*
X161645476Y-86106699D02*
X161524523Y-86167175D01*
D10*
X135414819Y-101658094D02*
X134414819Y-101658094D01*
X134414819Y-101658094D02*
X134414819Y-101419999D01*
X134414819Y-101419999D02*
X134462438Y-101277142D01*
X134462438Y-101277142D02*
X134557676Y-101181904D01*
X134557676Y-101181904D02*
X134652914Y-101134285D01*
X134652914Y-101134285D02*
X134843390Y-101086666D01*
X134843390Y-101086666D02*
X134986247Y-101086666D01*
X134986247Y-101086666D02*
X135176723Y-101134285D01*
X135176723Y-101134285D02*
X135271961Y-101181904D01*
X135271961Y-101181904D02*
X135367200Y-101277142D01*
X135367200Y-101277142D02*
X135414819Y-101419999D01*
X135414819Y-101419999D02*
X135414819Y-101658094D01*
X134414819Y-100753332D02*
X134414819Y-100134285D01*
X134414819Y-100134285D02*
X134795771Y-100467618D01*
X134795771Y-100467618D02*
X134795771Y-100324761D01*
X134795771Y-100324761D02*
X134843390Y-100229523D01*
X134843390Y-100229523D02*
X134891009Y-100181904D01*
X134891009Y-100181904D02*
X134986247Y-100134285D01*
X134986247Y-100134285D02*
X135224342Y-100134285D01*
X135224342Y-100134285D02*
X135319580Y-100181904D01*
X135319580Y-100181904D02*
X135367200Y-100229523D01*
X135367200Y-100229523D02*
X135414819Y-100324761D01*
X135414819Y-100324761D02*
X135414819Y-100610475D01*
X135414819Y-100610475D02*
X135367200Y-100705713D01*
X135367200Y-100705713D02*
X135319580Y-100753332D01*
X125544819Y-83738094D02*
X124544819Y-83738094D01*
X124544819Y-83738094D02*
X124544819Y-83499999D01*
X124544819Y-83499999D02*
X124592438Y-83357142D01*
X124592438Y-83357142D02*
X124687676Y-83261904D01*
X124687676Y-83261904D02*
X124782914Y-83214285D01*
X124782914Y-83214285D02*
X124973390Y-83166666D01*
X124973390Y-83166666D02*
X125116247Y-83166666D01*
X125116247Y-83166666D02*
X125306723Y-83214285D01*
X125306723Y-83214285D02*
X125401961Y-83261904D01*
X125401961Y-83261904D02*
X125497200Y-83357142D01*
X125497200Y-83357142D02*
X125544819Y-83499999D01*
X125544819Y-83499999D02*
X125544819Y-83738094D01*
X125544819Y-82214285D02*
X125544819Y-82785713D01*
X125544819Y-82499999D02*
X124544819Y-82499999D01*
X124544819Y-82499999D02*
X124687676Y-82595237D01*
X124687676Y-82595237D02*
X124782914Y-82690475D01*
X124782914Y-82690475D02*
X124830533Y-82785713D01*
X161433333Y-92559580D02*
X161385714Y-92607200D01*
X161385714Y-92607200D02*
X161242857Y-92654819D01*
X161242857Y-92654819D02*
X161147619Y-92654819D01*
X161147619Y-92654819D02*
X161004762Y-92607200D01*
X161004762Y-92607200D02*
X160909524Y-92511961D01*
X160909524Y-92511961D02*
X160861905Y-92416723D01*
X160861905Y-92416723D02*
X160814286Y-92226247D01*
X160814286Y-92226247D02*
X160814286Y-92083390D01*
X160814286Y-92083390D02*
X160861905Y-91892914D01*
X160861905Y-91892914D02*
X160909524Y-91797676D01*
X160909524Y-91797676D02*
X161004762Y-91702438D01*
X161004762Y-91702438D02*
X161147619Y-91654819D01*
X161147619Y-91654819D02*
X161242857Y-91654819D01*
X161242857Y-91654819D02*
X161385714Y-91702438D01*
X161385714Y-91702438D02*
X161433333Y-91750057D01*
X161814286Y-91750057D02*
X161861905Y-91702438D01*
X161861905Y-91702438D02*
X161957143Y-91654819D01*
X161957143Y-91654819D02*
X162195238Y-91654819D01*
X162195238Y-91654819D02*
X162290476Y-91702438D01*
X162290476Y-91702438D02*
X162338095Y-91750057D01*
X162338095Y-91750057D02*
X162385714Y-91845295D01*
X162385714Y-91845295D02*
X162385714Y-91940533D01*
X162385714Y-91940533D02*
X162338095Y-92083390D01*
X162338095Y-92083390D02*
X161766667Y-92654819D01*
X161766667Y-92654819D02*
X162385714Y-92654819D01*
%TO.C,R3*%
D12*
X140990000Y-88180000D02*
X140990000Y-88510000D01*
X140990000Y-90920000D02*
X140990000Y-90590000D01*
X147530000Y-88180000D02*
X140990000Y-88180000D01*
X147530000Y-88510000D02*
X147530000Y-88180000D01*
X147530000Y-90590000D02*
X147530000Y-90920000D01*
X147530000Y-90920000D02*
X140990000Y-90920000D01*
%TO.C,D2*%
X131650000Y-90280000D02*
G75*
G02*
X126650000Y-90280000I-2500000J0D01*
G01*
X126650000Y-90280000D02*
G75*
G02*
X131650000Y-90280000I2500000J0D01*
G01*
X129150000Y-87290000D02*
G75*
G02*
X130694830Y-92840000I0J-2990000D01*
G01*
X127605170Y-92840000D02*
G75*
G02*
X129150000Y-87290000I1544830J2560000D01*
G01*
X127605000Y-92840000D02*
X130695000Y-92840000D01*
%TO.C,C1*%
X123370000Y-82450000D02*
G75*
G02*
X118130000Y-82450000I-2620000J0D01*
G01*
X118130000Y-82450000D02*
G75*
G02*
X123370000Y-82450000I2620000J0D01*
G01*
X118150000Y-82733000D02*
X118150000Y-82167000D01*
X118190000Y-82967000D02*
X118190000Y-81933000D01*
X118230000Y-83127000D02*
X118230000Y-81773000D01*
X118270000Y-83255000D02*
X118270000Y-81645000D01*
X118310000Y-83364000D02*
X118310000Y-81536000D01*
X118350000Y-83461000D02*
X118350000Y-81439000D01*
X118390000Y-83548000D02*
X118390000Y-81352000D01*
X118430000Y-83627000D02*
X118430000Y-81273000D01*
X118470000Y-83701000D02*
X118470000Y-81199000D01*
X118510000Y-83769000D02*
X118510000Y-81131000D01*
X118550000Y-83833000D02*
X118550000Y-81067000D01*
X118590000Y-83893000D02*
X118590000Y-81007000D01*
X118630000Y-83949000D02*
X118630000Y-80951000D01*
X118670000Y-84003000D02*
X118670000Y-80897000D01*
X118710000Y-84054000D02*
X118710000Y-80846000D01*
X118750000Y-81410000D02*
X118750000Y-80798000D01*
X118750000Y-84102000D02*
X118750000Y-83490000D01*
X118790000Y-81410000D02*
X118790000Y-80751000D01*
X118790000Y-84149000D02*
X118790000Y-83490000D01*
X118830000Y-81410000D02*
X118830000Y-80707000D01*
X118830000Y-84193000D02*
X118830000Y-83490000D01*
X118870000Y-81410000D02*
X118870000Y-80665000D01*
X118870000Y-84235000D02*
X118870000Y-83490000D01*
X118910000Y-81410000D02*
X118910000Y-80625000D01*
X118910000Y-84275000D02*
X118910000Y-83490000D01*
X118950000Y-81410000D02*
X118950000Y-80586000D01*
X118950000Y-84314000D02*
X118950000Y-83490000D01*
X118990000Y-81410000D02*
X118990000Y-80549000D01*
X118990000Y-84351000D02*
X118990000Y-83490000D01*
X119030000Y-81410000D02*
X119030000Y-80514000D01*
X119030000Y-84386000D02*
X119030000Y-83490000D01*
X119070000Y-81410000D02*
X119070000Y-80480000D01*
X119070000Y-84420000D02*
X119070000Y-83490000D01*
X119110000Y-81410000D02*
X119110000Y-80447000D01*
X119110000Y-84453000D02*
X119110000Y-83490000D01*
X119150000Y-81410000D02*
X119150000Y-80415000D01*
X119150000Y-84485000D02*
X119150000Y-83490000D01*
X119190000Y-81410000D02*
X119190000Y-80385000D01*
X119190000Y-84515000D02*
X119190000Y-83490000D01*
X119230000Y-81410000D02*
X119230000Y-80356000D01*
X119230000Y-84544000D02*
X119230000Y-83490000D01*
X119270000Y-81410000D02*
X119270000Y-80328000D01*
X119270000Y-84572000D02*
X119270000Y-83490000D01*
X119310000Y-81410000D02*
X119310000Y-80301000D01*
X119310000Y-84599000D02*
X119310000Y-83490000D01*
X119350000Y-81410000D02*
X119350000Y-80275000D01*
X119350000Y-84625000D02*
X119350000Y-83490000D01*
X119390000Y-81410000D02*
X119390000Y-80251000D01*
X119390000Y-84649000D02*
X119390000Y-83490000D01*
X119430000Y-81410000D02*
X119430000Y-80227000D01*
X119430000Y-84673000D02*
X119430000Y-83490000D01*
X119470000Y-81410000D02*
X119470000Y-80204000D01*
X119470000Y-84696000D02*
X119470000Y-83490000D01*
X119510000Y-81410000D02*
X119510000Y-80182000D01*
X119510000Y-84718000D02*
X119510000Y-83490000D01*
X119550000Y-81410000D02*
X119550000Y-80161000D01*
X119550000Y-84739000D02*
X119550000Y-83490000D01*
X119590000Y-81410000D02*
X119590000Y-80141000D01*
X119590000Y-84759000D02*
X119590000Y-83490000D01*
X119630000Y-81410000D02*
X119630000Y-80121000D01*
X119630000Y-84779000D02*
X119630000Y-83490000D01*
X119670000Y-81410000D02*
X119670000Y-80103000D01*
X119670000Y-84797000D02*
X119670000Y-83490000D01*
X119710000Y-81410000D02*
X119710000Y-80085000D01*
X119710000Y-84815000D02*
X119710000Y-83490000D01*
X119750000Y-81410000D02*
X119750000Y-80068000D01*
X119750000Y-84832000D02*
X119750000Y-83490000D01*
X119790000Y-81410000D02*
X119790000Y-80052000D01*
X119790000Y-84848000D02*
X119790000Y-83490000D01*
X119830000Y-81410000D02*
X119830000Y-80037000D01*
X119830000Y-84863000D02*
X119830000Y-83490000D01*
X119870000Y-81410000D02*
X119870000Y-80022000D01*
X119870000Y-84878000D02*
X119870000Y-83490000D01*
X119910000Y-81410000D02*
X119910000Y-80008000D01*
X119910000Y-84892000D02*
X119910000Y-83490000D01*
X119950000Y-81410000D02*
X119950000Y-79995000D01*
X119950000Y-84905000D02*
X119950000Y-83490000D01*
X119990000Y-81410000D02*
X119990000Y-79983000D01*
X119990000Y-84917000D02*
X119990000Y-83490000D01*
X120030000Y-81410000D02*
X120030000Y-79971000D01*
X120030000Y-84929000D02*
X120030000Y-83490000D01*
X120070000Y-81410000D02*
X120070000Y-79960000D01*
X120070000Y-84940000D02*
X120070000Y-83490000D01*
X120110000Y-81410000D02*
X120110000Y-79949000D01*
X120110000Y-84951000D02*
X120110000Y-83490000D01*
X120150000Y-81410000D02*
X120150000Y-79940000D01*
X120150000Y-84960000D02*
X120150000Y-83490000D01*
X120190000Y-81410000D02*
X120190000Y-79931000D01*
X120190000Y-84969000D02*
X120190000Y-83490000D01*
X120230000Y-81410000D02*
X120230000Y-79922000D01*
X120230000Y-84978000D02*
X120230000Y-83490000D01*
X120270000Y-81410000D02*
X120270000Y-79914000D01*
X120270000Y-84986000D02*
X120270000Y-83490000D01*
X120310000Y-81410000D02*
X120310000Y-79907000D01*
X120310000Y-84993000D02*
X120310000Y-83490000D01*
X120350000Y-81410000D02*
X120350000Y-79901000D01*
X120350000Y-84999000D02*
X120350000Y-83490000D01*
X120390000Y-81410000D02*
X120390000Y-79895000D01*
X120390000Y-85005000D02*
X120390000Y-83490000D01*
X120430000Y-81410000D02*
X120430000Y-79890000D01*
X120430000Y-85010000D02*
X120430000Y-83490000D01*
X120470000Y-81410000D02*
X120470000Y-79885000D01*
X120470000Y-85015000D02*
X120470000Y-83490000D01*
X120510000Y-81410000D02*
X120510000Y-79881000D01*
X120510000Y-85019000D02*
X120510000Y-83490000D01*
X120550000Y-81410000D02*
X120550000Y-79878000D01*
X120550000Y-85022000D02*
X120550000Y-83490000D01*
X120590000Y-81410000D02*
X120590000Y-79875000D01*
X120590000Y-85025000D02*
X120590000Y-83490000D01*
X120630000Y-81410000D02*
X120630000Y-79873000D01*
X120630000Y-85027000D02*
X120630000Y-83490000D01*
X120670000Y-81410000D02*
X120670000Y-79871000D01*
X120670000Y-85029000D02*
X120670000Y-83490000D01*
X120710000Y-81410000D02*
X120710000Y-79870000D01*
X120710000Y-85030000D02*
X120710000Y-83490000D01*
X120750000Y-81410000D02*
X120750000Y-79870000D01*
X120750000Y-85030000D02*
X120750000Y-83490000D01*
X123304775Y-84175000D02*
X123304775Y-83675000D01*
X123554775Y-83925000D02*
X123054775Y-83925000D01*
%TO.C,U1*%
X141690000Y-79715000D02*
X145810000Y-79715000D01*
X141690000Y-79810000D02*
X141690000Y-79715000D01*
X141690000Y-84835000D02*
X141690000Y-84740000D01*
X145810000Y-79715000D02*
X145810000Y-79810000D01*
X145810000Y-84740000D02*
X145810000Y-84835000D01*
X145810000Y-84835000D02*
X141690000Y-84835000D01*
X141150000Y-79805000D02*
X140910000Y-79475000D01*
X141390000Y-79475000D01*
X141150000Y-79805000D01*
G36*
X141150000Y-79805000D02*
G01*
X140910000Y-79475000D01*
X141390000Y-79475000D01*
X141150000Y-79805000D01*
G37*
%TO.C,SW1*%
X114990000Y-98287500D02*
X123810000Y-98287500D01*
X114990000Y-98597500D02*
X114990000Y-98287500D01*
X114990000Y-102807500D02*
X114990000Y-102497500D01*
X116900000Y-97587500D02*
X117400000Y-98087500D01*
X117400000Y-98087500D02*
X117900000Y-97587500D01*
X117900000Y-97587500D02*
X116900000Y-97587500D01*
X123810000Y-98287500D02*
X123810000Y-98597500D01*
X123810000Y-102807500D02*
X114990000Y-102807500D01*
X123810000Y-102807500D02*
X123810000Y-102497500D01*
%TO.C,R6*%
X143130000Y-101320000D02*
X143130000Y-94780000D01*
X143460000Y-101320000D02*
X143130000Y-101320000D01*
X145540000Y-101320000D02*
X145870000Y-101320000D01*
X145870000Y-101320000D02*
X145870000Y-94780000D01*
X143130000Y-94780000D02*
X143460000Y-94780000D01*
X145870000Y-94780000D02*
X145540000Y-94780000D01*
%TO.C,R5*%
X150380000Y-99530000D02*
X156920000Y-99530000D01*
X150380000Y-99860000D02*
X150380000Y-99530000D01*
X150380000Y-101940000D02*
X150380000Y-102270000D01*
X150380000Y-102270000D02*
X156920000Y-102270000D01*
X156920000Y-99530000D02*
X156920000Y-99860000D01*
X156920000Y-102270000D02*
X156920000Y-101940000D01*
%TO.C,R4*%
X156710000Y-96120000D02*
X150170000Y-96120000D01*
X156710000Y-95790000D02*
X156710000Y-96120000D01*
X156710000Y-93710000D02*
X156710000Y-93380000D01*
X156710000Y-93380000D02*
X150170000Y-93380000D01*
X150170000Y-96120000D02*
X150170000Y-95790000D01*
X150170000Y-93380000D02*
X150170000Y-93710000D01*
%TO.C,R2*%
X135880000Y-84560000D02*
X135880000Y-78020000D01*
X136210000Y-84560000D02*
X135880000Y-84560000D01*
X138290000Y-84560000D02*
X138620000Y-84560000D01*
X138620000Y-84560000D02*
X138620000Y-78020000D01*
X135880000Y-78020000D02*
X136210000Y-78020000D01*
X138620000Y-78020000D02*
X138290000Y-78020000D01*
%TO.C,R1*%
X136080000Y-94910000D02*
X136080000Y-88370000D01*
X136410000Y-94910000D02*
X136080000Y-94910000D01*
X138490000Y-94910000D02*
X138820000Y-94910000D01*
X138820000Y-94910000D02*
X138820000Y-88370000D01*
X136080000Y-88370000D02*
X136410000Y-88370000D01*
X138820000Y-88370000D02*
X138490000Y-88370000D01*
%TO.C,Q1*%
D13*
X152050000Y-87850000D02*
X154650000Y-87850000D01*
X152050000Y-90750000D02*
X154500000Y-90750000D01*
D14*
X150850000Y-88500000D02*
X150850000Y-88500000D01*
X150850000Y-88300000D02*
X150850000Y-88300000D01*
X150850000Y-88500000D02*
G75*
G02*
X150850000Y-88300000I0J100000D01*
G01*
X150850000Y-88300000D02*
G75*
G02*
X150850000Y-88500000I0J-100000D01*
G01*
%TO.C,J3*%
D12*
X136430000Y-97830000D02*
X136430000Y-102910000D01*
X136430000Y-97830000D02*
X138970000Y-97830000D01*
X136430000Y-102910000D02*
X138970000Y-102910000D01*
X138970000Y-97830000D02*
X138970000Y-102910000D01*
%TO.C,J2*%
X166380000Y-87180000D02*
X166380000Y-92260000D01*
X166380000Y-87180000D02*
X168920000Y-87180000D01*
X166380000Y-92260000D02*
X168920000Y-92260000D01*
X168920000Y-87180000D02*
X168920000Y-92260000D01*
%TO.C,J1*%
X115600000Y-78700000D02*
X115600000Y-79150000D01*
X113750000Y-78700000D02*
X115600000Y-78700000D01*
X111200000Y-78700000D02*
X111450000Y-78700000D01*
X116150000Y-80900000D02*
X115700000Y-80900000D01*
X116150000Y-80900000D02*
X116150000Y-81350000D01*
X115600000Y-86500000D02*
X115600000Y-86050000D01*
X113750000Y-86500000D02*
X115600000Y-86500000D01*
X111200000Y-86500000D02*
X111450000Y-86500000D01*
%TO.C,IC1*%
D14*
X161250000Y-90550000D02*
X160650000Y-90550000D01*
X160650000Y-90550000D02*
X160650000Y-87650000D01*
X160650000Y-87650000D02*
X161250000Y-87650000D01*
X161250000Y-87650000D02*
X161250000Y-90550000D01*
X162800000Y-90700000D02*
X161600000Y-90700000D01*
%TO.C,D3*%
D12*
X132545000Y-98360000D02*
X129455000Y-98360000D01*
X132544830Y-98360000D02*
G75*
G02*
X131000000Y-103910000I-1544830J-2560000D01*
G01*
X131000000Y-103910000D02*
G75*
G02*
X129455170Y-98360000I0J2990000D01*
G01*
X133500000Y-100920000D02*
G75*
G02*
X128500000Y-100920000I-2500000J0D01*
G01*
X128500000Y-100920000D02*
G75*
G02*
X133500000Y-100920000I2500000J0D01*
G01*
%TO.C,D1*%
X127505000Y-85560000D02*
X130595000Y-85560000D01*
X127505170Y-85560000D02*
G75*
G02*
X129050000Y-80010000I1544830J2560000D01*
G01*
X129050000Y-80010000D02*
G75*
G02*
X130594830Y-85560000I0J-2990000D01*
G01*
X131550000Y-83000000D02*
G75*
G02*
X126550000Y-83000000I-2500000J0D01*
G01*
X126550000Y-83000000D02*
G75*
G02*
X131550000Y-83000000I2500000J0D01*
G01*
%TO.C,C2*%
X158795225Y-94475000D02*
X159295225Y-94475000D01*
X159045225Y-94225000D02*
X159045225Y-94725000D01*
X161600000Y-93370000D02*
X161600000Y-94910000D01*
X161600000Y-96990000D02*
X161600000Y-98530000D01*
X161640000Y-93370000D02*
X161640000Y-94910000D01*
X161640000Y-96990000D02*
X161640000Y-98530000D01*
X161680000Y-93371000D02*
X161680000Y-94910000D01*
X161680000Y-96990000D02*
X161680000Y-98529000D01*
X161720000Y-93373000D02*
X161720000Y-94910000D01*
X161720000Y-96990000D02*
X161720000Y-98527000D01*
X161760000Y-93375000D02*
X161760000Y-94910000D01*
X161760000Y-96990000D02*
X161760000Y-98525000D01*
X161800000Y-93378000D02*
X161800000Y-94910000D01*
X161800000Y-96990000D02*
X161800000Y-98522000D01*
X161840000Y-93381000D02*
X161840000Y-94910000D01*
X161840000Y-96990000D02*
X161840000Y-98519000D01*
X161880000Y-93385000D02*
X161880000Y-94910000D01*
X161880000Y-96990000D02*
X161880000Y-98515000D01*
X161920000Y-93390000D02*
X161920000Y-94910000D01*
X161920000Y-96990000D02*
X161920000Y-98510000D01*
X161960000Y-93395000D02*
X161960000Y-94910000D01*
X161960000Y-96990000D02*
X161960000Y-98505000D01*
X162000000Y-93401000D02*
X162000000Y-94910000D01*
X162000000Y-96990000D02*
X162000000Y-98499000D01*
X162040000Y-93407000D02*
X162040000Y-94910000D01*
X162040000Y-96990000D02*
X162040000Y-98493000D01*
X162080000Y-93414000D02*
X162080000Y-94910000D01*
X162080000Y-96990000D02*
X162080000Y-98486000D01*
X162120000Y-93422000D02*
X162120000Y-94910000D01*
X162120000Y-96990000D02*
X162120000Y-98478000D01*
X162160000Y-93431000D02*
X162160000Y-94910000D01*
X162160000Y-96990000D02*
X162160000Y-98469000D01*
X162200000Y-93440000D02*
X162200000Y-94910000D01*
X162200000Y-96990000D02*
X162200000Y-98460000D01*
X162240000Y-93449000D02*
X162240000Y-94910000D01*
X162240000Y-96990000D02*
X162240000Y-98451000D01*
X162280000Y-93460000D02*
X162280000Y-94910000D01*
X162280000Y-96990000D02*
X162280000Y-98440000D01*
X162320000Y-93471000D02*
X162320000Y-94910000D01*
X162320000Y-96990000D02*
X162320000Y-98429000D01*
X162360000Y-93483000D02*
X162360000Y-94910000D01*
X162360000Y-96990000D02*
X162360000Y-98417000D01*
X162400000Y-93495000D02*
X162400000Y-94910000D01*
X162400000Y-96990000D02*
X162400000Y-98405000D01*
X162440000Y-93508000D02*
X162440000Y-94910000D01*
X162440000Y-96990000D02*
X162440000Y-98392000D01*
X162480000Y-93522000D02*
X162480000Y-94910000D01*
X162480000Y-96990000D02*
X162480000Y-98378000D01*
X162520000Y-93537000D02*
X162520000Y-94910000D01*
X162520000Y-96990000D02*
X162520000Y-98363000D01*
X162560000Y-93552000D02*
X162560000Y-94910000D01*
X162560000Y-96990000D02*
X162560000Y-98348000D01*
X162600000Y-93568000D02*
X162600000Y-94910000D01*
X162600000Y-96990000D02*
X162600000Y-98332000D01*
X162640000Y-93585000D02*
X162640000Y-94910000D01*
X162640000Y-96990000D02*
X162640000Y-98315000D01*
X162680000Y-93603000D02*
X162680000Y-94910000D01*
X162680000Y-96990000D02*
X162680000Y-98297000D01*
X162720000Y-93621000D02*
X162720000Y-94910000D01*
X162720000Y-96990000D02*
X162720000Y-98279000D01*
X162760000Y-93641000D02*
X162760000Y-94910000D01*
X162760000Y-96990000D02*
X162760000Y-98259000D01*
X162800000Y-93661000D02*
X162800000Y-94910000D01*
X162800000Y-96990000D02*
X162800000Y-98239000D01*
X162840000Y-93682000D02*
X162840000Y-94910000D01*
X162840000Y-96990000D02*
X162840000Y-98218000D01*
X162880000Y-93704000D02*
X162880000Y-94910000D01*
X162880000Y-96990000D02*
X162880000Y-98196000D01*
X162920000Y-93727000D02*
X162920000Y-94910000D01*
X162920000Y-96990000D02*
X162920000Y-98173000D01*
X162960000Y-93751000D02*
X162960000Y-94910000D01*
X162960000Y-96990000D02*
X162960000Y-98149000D01*
X163000000Y-93775000D02*
X163000000Y-94910000D01*
X163000000Y-96990000D02*
X163000000Y-98125000D01*
X163040000Y-93801000D02*
X163040000Y-94910000D01*
X163040000Y-96990000D02*
X163040000Y-98099000D01*
X163080000Y-93828000D02*
X163080000Y-94910000D01*
X163080000Y-96990000D02*
X163080000Y-98072000D01*
X163120000Y-93856000D02*
X163120000Y-94910000D01*
X163120000Y-96990000D02*
X163120000Y-98044000D01*
X163160000Y-93885000D02*
X163160000Y-94910000D01*
X163160000Y-96990000D02*
X163160000Y-98015000D01*
X163200000Y-93915000D02*
X163200000Y-94910000D01*
X163200000Y-96990000D02*
X163200000Y-97985000D01*
X163240000Y-93947000D02*
X163240000Y-94910000D01*
X163240000Y-96990000D02*
X163240000Y-97953000D01*
X163280000Y-93980000D02*
X163280000Y-94910000D01*
X163280000Y-96990000D02*
X163280000Y-97920000D01*
X163320000Y-94014000D02*
X163320000Y-94910000D01*
X163320000Y-96990000D02*
X163320000Y-97886000D01*
X163360000Y-94049000D02*
X163360000Y-94910000D01*
X163360000Y-96990000D02*
X163360000Y-97851000D01*
X163400000Y-94086000D02*
X163400000Y-94910000D01*
X163400000Y-96990000D02*
X163400000Y-97814000D01*
X163440000Y-94125000D02*
X163440000Y-94910000D01*
X163440000Y-96990000D02*
X163440000Y-97775000D01*
X163480000Y-94165000D02*
X163480000Y-94910000D01*
X163480000Y-96990000D02*
X163480000Y-97735000D01*
X163520000Y-94207000D02*
X163520000Y-94910000D01*
X163520000Y-96990000D02*
X163520000Y-97693000D01*
X163560000Y-94251000D02*
X163560000Y-94910000D01*
X163560000Y-96990000D02*
X163560000Y-97649000D01*
X163600000Y-94298000D02*
X163600000Y-94910000D01*
X163600000Y-96990000D02*
X163600000Y-97602000D01*
X163640000Y-94346000D02*
X163640000Y-97554000D01*
X163680000Y-94397000D02*
X163680000Y-97503000D01*
X163720000Y-94451000D02*
X163720000Y-97449000D01*
X163760000Y-94507000D02*
X163760000Y-97393000D01*
X163800000Y-94567000D02*
X163800000Y-97333000D01*
X163840000Y-94631000D02*
X163840000Y-97269000D01*
X163880000Y-94699000D02*
X163880000Y-97201000D01*
X163920000Y-94773000D02*
X163920000Y-97127000D01*
X163960000Y-94852000D02*
X163960000Y-97048000D01*
X164000000Y-94939000D02*
X164000000Y-96961000D01*
X164040000Y-95036000D02*
X164040000Y-96864000D01*
X164080000Y-95145000D02*
X164080000Y-96755000D01*
X164120000Y-95273000D02*
X164120000Y-96627000D01*
X164160000Y-95433000D02*
X164160000Y-96467000D01*
X164200000Y-95667000D02*
X164200000Y-96233000D01*
X164220000Y-95950000D02*
G75*
G02*
X158980000Y-95950000I-2620000J0D01*
G01*
X158980000Y-95950000D02*
G75*
G02*
X164220000Y-95950000I2620000J0D01*
G01*
%TD*%
M02*
